<?xml version="1.0" encoding="UTF-8" standalone="no"?><svg xmlns="http://www.w3.org/2000/svg" xmlns:xlink="http://www.w3.org/1999/xlink" contentScriptType="application/ecmascript" contentStyleType="text/css" height="839px" preserveAspectRatio="none" style="width:1288px;height:839px;" version="1.1" viewBox="0 0 1288 839" width="1288px" zoomAndPan="magnify"><defs><filter height="300%" id="fkrspisf8fpy5" width="300%" x="-1" y="-1"><feGaussianBlur result="blurOut" stdDeviation="2.0"/><feColorMatrix in="blurOut" result="blurOut2" type="matrix" values="0 0 0 0 0 0 0 0 0 0 0 0 0 0 0 0 0 0 .4 0"/><feOffset dx="4.0" dy="4.0" in="blurOut2" result="blurOut3"/><feBlend in="SourceGraphic" in2="blurOut3" mode="normal"/></filter></defs><g><!--MD5=[a77781830b4eef1927aef37ad01ad2c2]
class Catalogue--><rect fill="#FEFECE" filter="url(#fkrspisf8fpy5)" height="137.6328" id="Catalogue" style="stroke: #A80036; stroke-width: 1.5;" width="511" x="6" y="274"/><ellipse cx="225.25" cy="290" fill="#ADD1B2" rx="11" ry="11" style="stroke: #A80036; stroke-width: 1.0;"/><path d="M228.2188,295.6406 Q227.6406,295.9375 227,296.0781 Q226.3594,296.2344 225.6563,296.2344 Q223.1563,296.2344 221.8281,294.5938 Q220.5156,292.9375 220.5156,289.8125 Q220.5156,286.6875 221.8281,285.0313 Q223.1563,283.375 225.6563,283.375 Q226.3594,283.375 227,283.5313 Q227.6563,283.6875 228.2188,283.9844 L228.2188,286.7031 Q227.5938,286.125 227,285.8594 Q226.4063,285.5781 225.7813,285.5781 Q224.4375,285.5781 223.75,286.6563 Q223.0625,287.7188 223.0625,289.8125 Q223.0625,291.9063 223.75,292.9844 Q224.4375,294.0469 225.7813,294.0469 Q226.4063,294.0469 227,293.7813 Q227.5938,293.5 228.2188,292.9219 L228.2188,295.6406 Z "/><text fill="#000000" font-family="sans-serif" font-size="12" lengthAdjust="spacingAndGlyphs" textLength="64" x="245.75" y="294.1543">Catalogue</text><line style="stroke: #A80036; stroke-width: 1.5;" x1="7" x2="516" y1="306" y2="306"/><line style="stroke: #A80036; stroke-width: 1.5;" x1="7" x2="516" y1="314" y2="314"/><ellipse cx="17" cy="325" fill="#84BE84" rx="3" ry="3" style="stroke: #038048; stroke-width: 1.0;"/><text fill="#000000" font-family="sans-serif" font-size="11" lengthAdjust="spacingAndGlyphs" textLength="65" x="26" y="328.2104">Catalogue()</text><ellipse cx="17" cy="337.8047" fill="#84BE84" rx="3" ry="3" style="stroke: #038048; stroke-width: 1.0;"/><text fill="#000000" font-family="sans-serif" font-size="11" lengthAdjust="spacingAndGlyphs" textLength="113" x="26" y="341.0151">~Catalogue() virtual</text><ellipse cx="17" cy="350.6094" fill="#84BE84" rx="3" ry="3" style="stroke: #038048; stroke-width: 1.0;"/><text fill="#000000" font-family="sans-serif" font-size="11" lengthAdjust="spacingAndGlyphs" textLength="208" x="26" y="353.8198">ajouter(Trajet* trajet) override : bool</text><ellipse cx="17" cy="363.4141" fill="#84BE84" rx="3" ry="3" style="stroke: #038048; stroke-width: 1.0;"/><text fill="#000000" font-family="sans-serif" font-size="11" lengthAdjust="spacingAndGlyphs" textLength="227" x="26" y="366.6245">supprimer(Trajet* trajet) override : bool</text><ellipse cx="17" cy="376.2188" fill="#84BE84" rx="3" ry="3" style="stroke: #038048; stroke-width: 1.0;"/><text fill="#000000" font-family="sans-serif" font-size="11" lengthAdjust="spacingAndGlyphs" textLength="477" x="26" y="379.4292">rechercheTrajetSimple(const char* villeDepart, const char* villeArrivee) const : void</text><ellipse cx="17" cy="389.0234" fill="#84BE84" rx="3" ry="3" style="stroke: #038048; stroke-width: 1.0;"/><text fill="#000000" font-family="sans-serif" font-size="11" lengthAdjust="spacingAndGlyphs" textLength="485" x="26" y="392.2339">rechercheTrajetAvancee(const char* villeDepart, const char* villeArrivee) const : void</text><ellipse cx="17" cy="401.8281" fill="#84BE84" rx="3" ry="3" style="stroke: #038048; stroke-width: 1.0;"/><text fill="#000000" font-family="sans-serif" font-size="11" lengthAdjust="spacingAndGlyphs" textLength="205" x="26" y="405.0386">afficher(ostream &amp; out) const : void</text><!--MD5=[12796fd82a669cda51489a195c4d6ad7]
class ListeChaineeTrajets--><rect fill="#FEFECE" filter="url(#fkrspisf8fpy5)" height="188.8516" id="ListeChaineeTrajets" style="stroke: #A80036; stroke-width: 1.5;" width="513" x="487" y="8"/><ellipse cx="677.75" cy="24" fill="#ADD1B2" rx="11" ry="11" style="stroke: #A80036; stroke-width: 1.0;"/><path d="M680.7188,29.6406 Q680.1406,29.9375 679.5,30.0781 Q678.8594,30.2344 678.1563,30.2344 Q675.6563,30.2344 674.3281,28.5938 Q673.0156,26.9375 673.0156,23.8125 Q673.0156,20.6875 674.3281,19.0313 Q675.6563,17.375 678.1563,17.375 Q678.8594,17.375 679.5,17.5313 Q680.1563,17.6875 680.7188,17.9844 L680.7188,20.7031 Q680.0938,20.125 679.5,19.8594 Q678.9063,19.5781 678.2813,19.5781 Q676.9375,19.5781 676.25,20.6563 Q675.5625,21.7188 675.5625,23.8125 Q675.5625,25.9063 676.25,26.9844 Q676.9375,28.0469 678.2813,28.0469 Q678.9063,28.0469 679.5,27.7813 Q680.0938,27.5 680.7188,26.9219 L680.7188,29.6406 Z "/><text fill="#000000" font-family="sans-serif" font-size="12" lengthAdjust="spacingAndGlyphs" textLength="123" x="698.25" y="28.1543">ListeChaineeTrajets</text><line style="stroke: #A80036; stroke-width: 1.5;" x1="488" x2="999" y1="40" y2="40"/><polygon fill="none" points="498,46,502,50,498,54,494,50" style="stroke: #B38D22; stroke-width: 1.0;"/><text fill="#000000" font-family="sans-serif" font-size="11" lengthAdjust="spacingAndGlyphs" textLength="254" x="507" y="54.2104">premierMaillon : MaillonListeChaineeTrajets*</text><polygon fill="none" points="498,58.8047,502,62.8047,498,66.8047,494,62.8047" style="stroke: #B38D22; stroke-width: 1.0;"/><text fill="#000000" font-family="sans-serif" font-size="11" lengthAdjust="spacingAndGlyphs" textLength="250" x="507" y="67.0151">dernierMaillon : MaillonListeChaineeTrajets*</text><polygon fill="none" points="498,71.6094,502,75.6094,498,79.6094,494,75.6094" style="stroke: #B38D22; stroke-width: 1.0;"/><text fill="#000000" font-family="sans-serif" font-size="11" lengthAdjust="spacingAndGlyphs" textLength="109" x="507" y="79.8198">taille : unsigned int</text><line style="stroke: #A80036; stroke-width: 1.5;" x1="488" x2="999" y1="86.4141" y2="86.4141"/><ellipse cx="498" cy="97.4141" fill="#84BE84" rx="3" ry="3" style="stroke: #038048; stroke-width: 1.0;"/><text fill="#000000" font-family="sans-serif" font-size="11" lengthAdjust="spacingAndGlyphs" textLength="121" x="507" y="100.6245">ListeChaineeTrajets()</text><ellipse cx="498" cy="110.2188" fill="#84BE84" rx="3" ry="3" style="stroke: #038048; stroke-width: 1.0;"/><text fill="#000000" font-family="sans-serif" font-size="11" lengthAdjust="spacingAndGlyphs" textLength="169" x="507" y="113.4292">~ListeChaineeTrajets() virtual</text><ellipse cx="498" cy="123.0234" fill="#84BE84" rx="3" ry="3" style="stroke: #038048; stroke-width: 1.0;"/><text fill="#000000" font-family="sans-serif" font-size="11" lengthAdjust="spacingAndGlyphs" textLength="213" x="507" y="126.2339">ajouter(Trajet* unTrajet) virtual : bool</text><ellipse cx="498" cy="135.8281" fill="#84BE84" rx="3" ry="3" style="stroke: #038048; stroke-width: 1.0;"/><text fill="#000000" font-family="sans-serif" font-size="11" lengthAdjust="spacingAndGlyphs" textLength="232" x="507" y="139.0386">supprimer(Trajet* unTrajet) virtual : bool</text><ellipse cx="498" cy="148.6328" fill="#84BE84" rx="3" ry="3" style="stroke: #038048; stroke-width: 1.0;"/><text fill="#000000" font-family="sans-serif" font-size="11" lengthAdjust="spacingAndGlyphs" textLength="487" x="507" y="151.8433">getMaillonListeChaineeTrajets(unsigned int index) const : MaillonListeChaineeTrajets*</text><ellipse cx="498" cy="161.4375" fill="#84BE84" rx="3" ry="3" style="stroke: #038048; stroke-width: 1.0;"/><text fill="#000000" font-family="sans-serif" font-size="11" lengthAdjust="spacingAndGlyphs" textLength="173" x="507" y="164.6479">getTaille() const : unsigned int</text><ellipse cx="498" cy="174.2422" fill="#84BE84" rx="3" ry="3" style="stroke: #038048; stroke-width: 1.0;"/><text fill="#000000" font-family="sans-serif" font-size="11" lengthAdjust="spacingAndGlyphs" textLength="121" x="507" y="177.4526">estVide() const : bool</text><ellipse cx="498" cy="187.0469" fill="#84BE84" rx="3" ry="3" style="stroke: #038048; stroke-width: 1.0;"/><text fill="#000000" font-family="sans-serif" font-size="11" lengthAdjust="spacingAndGlyphs" textLength="249" x="507" y="190.2573">contient(const Trajet* unTrajet) const : bool</text><!--MD5=[f842cc64dcc4f0aeb3c284b8ad84df45]
class MaillonListeChaineeTrajets--><rect fill="#FEFECE" filter="url(#fkrspisf8fpy5)" height="137.6328" id="MaillonListeChaineeTrajets" style="stroke: #A80036; stroke-width: 1.5;" width="383" x="552" y="274"/><ellipse cx="656.25" cy="290" fill="#ADD1B2" rx="11" ry="11" style="stroke: #A80036; stroke-width: 1.0;"/><path d="M659.2188,295.6406 Q658.6406,295.9375 658,296.0781 Q657.3594,296.2344 656.6563,296.2344 Q654.1563,296.2344 652.8281,294.5938 Q651.5156,292.9375 651.5156,289.8125 Q651.5156,286.6875 652.8281,285.0313 Q654.1563,283.375 656.6563,283.375 Q657.3594,283.375 658,283.5313 Q658.6563,283.6875 659.2188,283.9844 L659.2188,286.7031 Q658.5938,286.125 658,285.8594 Q657.4063,285.5781 656.7813,285.5781 Q655.4375,285.5781 654.75,286.6563 Q654.0625,287.7188 654.0625,289.8125 Q654.0625,291.9063 654.75,292.9844 Q655.4375,294.0469 656.7813,294.0469 Q657.4063,294.0469 658,293.7813 Q658.5938,293.5 659.2188,292.9219 L659.2188,295.6406 Z "/><text fill="#000000" font-family="sans-serif" font-size="12" lengthAdjust="spacingAndGlyphs" textLength="166" x="676.75" y="294.1543">MaillonListeChaineeTrajets</text><line style="stroke: #A80036; stroke-width: 1.5;" x1="553" x2="934" y1="306" y2="306"/><polygon fill="none" points="563,312,567,316,563,320,559,316" style="stroke: #B38D22; stroke-width: 1.0;"/><text fill="#000000" font-family="sans-serif" font-size="11" lengthAdjust="spacingAndGlyphs" textLength="81" x="572" y="320.2104">trajet : Trajet*</text><polygon fill="none" points="563,324.8047,567,328.8047,563,332.8047,559,328.8047" style="stroke: #B38D22; stroke-width: 1.0;"/><text fill="#000000" font-family="sans-serif" font-size="11" lengthAdjust="spacingAndGlyphs" textLength="253" x="572" y="333.0151">maillonSuivant : MaillonListeChaineeTrajets*</text><line style="stroke: #A80036; stroke-width: 1.5;" x1="553" x2="934" y1="339.6094" y2="339.6094"/><ellipse cx="563" cy="350.6094" fill="#84BE84" rx="3" ry="3" style="stroke: #038048; stroke-width: 1.0;"/><text fill="#000000" font-family="sans-serif" font-size="11" lengthAdjust="spacingAndGlyphs" textLength="250" x="572" y="353.8198">MaillonListeChaineeTrajets(Trajet* unTrajet)</text><ellipse cx="563" cy="363.4141" fill="#84BE84" rx="3" ry="3" style="stroke: #038048; stroke-width: 1.0;"/><text fill="#000000" font-family="sans-serif" font-size="11" lengthAdjust="spacingAndGlyphs" textLength="208" x="572" y="366.6245">~MaillonListeChaineeTrajets() virtual</text><ellipse cx="563" cy="376.2188" fill="#84BE84" rx="3" ry="3" style="stroke: #038048; stroke-width: 1.0;"/><text fill="#000000" font-family="sans-serif" font-size="11" lengthAdjust="spacingAndGlyphs" textLength="312" x="572" y="379.4292">getMaillonSuivant() const : MaillonListeChaineeTrajets*</text><ellipse cx="563" cy="389.0234" fill="#84BE84" rx="3" ry="3" style="stroke: #038048; stroke-width: 1.0;"/><text fill="#000000" font-family="sans-serif" font-size="11" lengthAdjust="spacingAndGlyphs" textLength="357" x="572" y="392.2339">setMaillonSuivant(MaillonListeChaineeTrajets* unMaillon) : void</text><ellipse cx="563" cy="401.8281" fill="#84BE84" rx="3" ry="3" style="stroke: #038048; stroke-width: 1.0;"/><text fill="#000000" font-family="sans-serif" font-size="11" lengthAdjust="spacingAndGlyphs" textLength="145" x="572" y="405.0386">getTrajet() const : Trajet*</text><!--MD5=[6715f46a36203688ef12a3337d474df8]
class StringHelper--><rect fill="#FEFECE" filter="url(#fkrspisf8fpy5)" height="60.8047" id="StringHelper" style="stroke: #A80036; stroke-width: 1.5;" width="242" x="1035.5" y="72"/><ellipse cx="1113.25" cy="88" fill="#ADD1B2" rx="11" ry="11" style="stroke: #A80036; stroke-width: 1.0;"/><path d="M1116.2188,93.6406 Q1115.6406,93.9375 1115,94.0781 Q1114.3594,94.2344 1113.6563,94.2344 Q1111.1563,94.2344 1109.8281,92.5938 Q1108.5156,90.9375 1108.5156,87.8125 Q1108.5156,84.6875 1109.8281,83.0313 Q1111.1563,81.375 1113.6563,81.375 Q1114.3594,81.375 1115,81.5313 Q1115.6563,81.6875 1116.2188,81.9844 L1116.2188,84.7031 Q1115.5938,84.125 1115,83.8594 Q1114.4063,83.5781 1113.7813,83.5781 Q1112.4375,83.5781 1111.75,84.6563 Q1111.0625,85.7188 1111.0625,87.8125 Q1111.0625,89.9063 1111.75,90.9844 Q1112.4375,92.0469 1113.7813,92.0469 Q1114.4063,92.0469 1115,91.7813 Q1115.5938,91.5 1116.2188,90.9219 L1116.2188,93.6406 Z "/><text fill="#000000" font-family="sans-serif" font-size="12" lengthAdjust="spacingAndGlyphs" textLength="78" x="1133.75" y="92.1543">StringHelper</text><line style="stroke: #A80036; stroke-width: 1.5;" x1="1036.5" x2="1276.5" y1="104" y2="104"/><line style="stroke: #A80036; stroke-width: 1.5;" x1="1036.5" x2="1276.5" y1="112" y2="112"/><ellipse cx="1046.5" cy="123" fill="#84BE84" rx="3" ry="3" style="stroke: #038048; stroke-width: 1.0;"/><text fill="#000000" font-family="sans-serif" font-size="11" lengthAdjust="spacingAndGlyphs" textLength="216" x="1055.5" y="126.2104">strempty(const char* str) static : bool</text><!--MD5=[5d57f717c5d5963ea0d5127ec122f9f6]
class Trajet--><rect fill="#FEFECE" filter="url(#fkrspisf8fpy5)" height="99.2188" id="Trajet" style="stroke: #A80036; stroke-width: 1.5;" width="270" x="608.5" y="489"/><ellipse cx="721.25" cy="505" fill="#ADD1B2" rx="11" ry="11" style="stroke: #A80036; stroke-width: 1.0;"/><path d="M724.2188,510.6406 Q723.6406,510.9375 723,511.0781 Q722.3594,511.2344 721.6563,511.2344 Q719.1563,511.2344 717.8281,509.5938 Q716.5156,507.9375 716.5156,504.8125 Q716.5156,501.6875 717.8281,500.0313 Q719.1563,498.375 721.6563,498.375 Q722.3594,498.375 723,498.5313 Q723.6563,498.6875 724.2188,498.9844 L724.2188,501.7031 Q723.5938,501.125 723,500.8594 Q722.4063,500.5781 721.7813,500.5781 Q720.4375,500.5781 719.75,501.6563 Q719.0625,502.7188 719.0625,504.8125 Q719.0625,506.9063 719.75,507.9844 Q720.4375,509.0469 721.7813,509.0469 Q722.4063,509.0469 723,508.7813 Q723.5938,508.5 724.2188,507.9219 L724.2188,510.6406 Z "/><text fill="#000000" font-family="sans-serif" font-size="12" lengthAdjust="spacingAndGlyphs" textLength="36" x="741.75" y="509.1543">Trajet</text><line style="stroke: #A80036; stroke-width: 1.5;" x1="609.5" x2="877.5" y1="521" y2="521"/><line style="stroke: #A80036; stroke-width: 1.5;" x1="609.5" x2="877.5" y1="529" y2="529"/><ellipse cx="619.5" cy="540" fill="#84BE84" rx="3" ry="3" style="stroke: #038048; stroke-width: 1.0;"/><text fill="#000000" font-family="sans-serif" font-size="11" lengthAdjust="spacingAndGlyphs" textLength="170" x="628.5" y="543.2104">estValide() const virtual : bool</text><ellipse cx="619.5" cy="552.8047" fill="#84BE84" rx="3" ry="3" style="stroke: #038048; stroke-width: 1.0;"/><text fill="#000000" font-family="sans-serif" font-size="11" lengthAdjust="spacingAndGlyphs" textLength="244" x="628.5" y="556.0151">afficher(ostream &amp; out) const virtual : void</text><ellipse cx="619.5" cy="565.6094" fill="#84BE84" rx="3" ry="3" style="stroke: #038048; stroke-width: 1.0;"/><text fill="#000000" font-family="sans-serif" font-size="11" lengthAdjust="spacingAndGlyphs" textLength="239" x="628.5" y="568.8198">getVilleDepart() const virtual : const char*</text><ellipse cx="619.5" cy="578.4141" fill="#84BE84" rx="3" ry="3" style="stroke: #038048; stroke-width: 1.0;"/><text fill="#000000" font-family="sans-serif" font-size="11" lengthAdjust="spacingAndGlyphs" textLength="241" x="628.5" y="581.6245">getVilleArrivee() const virtual : const char*</text><!--MD5=[de0310d8d2a212b67bd89d47197da413]
class TrajetCompose--><rect fill="#FEFECE" filter="url(#fkrspisf8fpy5)" height="150.4375" id="TrajetCompose" style="stroke: #A80036; stroke-width: 1.5;" width="282" x="846.5" y="671.5"/><ellipse cx="936.25" cy="687.5" fill="#ADD1B2" rx="11" ry="11" style="stroke: #A80036; stroke-width: 1.0;"/><path d="M939.2188,693.1406 Q938.6406,693.4375 938,693.5781 Q937.3594,693.7344 936.6563,693.7344 Q934.1563,693.7344 932.8281,692.0938 Q931.5156,690.4375 931.5156,687.3125 Q931.5156,684.1875 932.8281,682.5313 Q934.1563,680.875 936.6563,680.875 Q937.3594,680.875 938,681.0313 Q938.6563,681.1875 939.2188,681.4844 L939.2188,684.2031 Q938.5938,683.625 938,683.3594 Q937.4063,683.0781 936.7813,683.0781 Q935.4375,683.0781 934.75,684.1563 Q934.0625,685.2188 934.0625,687.3125 Q934.0625,689.4063 934.75,690.4844 Q935.4375,691.5469 936.7813,691.5469 Q937.4063,691.5469 938,691.2813 Q938.5938,691 939.2188,690.4219 L939.2188,693.1406 Z "/><text fill="#000000" font-family="sans-serif" font-size="12" lengthAdjust="spacingAndGlyphs" textLength="94" x="956.75" y="691.6543">TrajetCompose</text><line style="stroke: #A80036; stroke-width: 1.5;" x1="847.5" x2="1127.5" y1="703.5" y2="703.5"/><line style="stroke: #A80036; stroke-width: 1.5;" x1="847.5" x2="1127.5" y1="711.5" y2="711.5"/><ellipse cx="857.5" cy="722.5" fill="#84BE84" rx="3" ry="3" style="stroke: #038048; stroke-width: 1.0;"/><text fill="#000000" font-family="sans-serif" font-size="11" lengthAdjust="spacingAndGlyphs" textLength="95" x="866.5" y="725.7104">TrajetCompose()</text><ellipse cx="857.5" cy="735.3047" fill="#84BE84" rx="3" ry="3" style="stroke: #038048; stroke-width: 1.0;"/><text fill="#000000" font-family="sans-serif" font-size="11" lengthAdjust="spacingAndGlyphs" textLength="143" x="866.5" y="738.5151">~TrajetCompose() virtual</text><ellipse cx="857.5" cy="748.1094" fill="#84BE84" rx="3" ry="3" style="stroke: #038048; stroke-width: 1.0;"/><text fill="#000000" font-family="sans-serif" font-size="11" lengthAdjust="spacingAndGlyphs" textLength="208" x="866.5" y="751.3198">ajouter(Trajet* trajet) override : bool</text><ellipse cx="857.5" cy="760.9141" fill="#84BE84" rx="3" ry="3" style="stroke: #038048; stroke-width: 1.0;"/><text fill="#000000" font-family="sans-serif" font-size="11" lengthAdjust="spacingAndGlyphs" textLength="227" x="866.5" y="764.1245">supprimer(Trajet* trajet) override : bool</text><ellipse cx="857.5" cy="773.7188" fill="#84BE84" rx="3" ry="3" style="stroke: #038048; stroke-width: 1.0;"/><text fill="#000000" font-family="sans-serif" font-size="11" lengthAdjust="spacingAndGlyphs" textLength="182" x="866.5" y="776.9292">estValide() const override : bool</text><ellipse cx="857.5" cy="786.5234" fill="#84BE84" rx="3" ry="3" style="stroke: #038048; stroke-width: 1.0;"/><text fill="#000000" font-family="sans-serif" font-size="11" lengthAdjust="spacingAndGlyphs" textLength="256" x="866.5" y="789.7339">afficher(ostream &amp; out) const override : void</text><ellipse cx="857.5" cy="799.3281" fill="#84BE84" rx="3" ry="3" style="stroke: #038048; stroke-width: 1.0;"/><text fill="#000000" font-family="sans-serif" font-size="11" lengthAdjust="spacingAndGlyphs" textLength="251" x="866.5" y="802.5386">getVilleDepart() const override : const char*</text><ellipse cx="857.5" cy="812.1328" fill="#84BE84" rx="3" ry="3" style="stroke: #038048; stroke-width: 1.0;"/><text fill="#000000" font-family="sans-serif" font-size="11" lengthAdjust="spacingAndGlyphs" textLength="253" x="866.5" y="815.3433">getVilleArrivee() const override : const char*</text><!--MD5=[dae9d1b019c0fc0a0d77fc2f49737a6b]
class TrajetSimple--><rect fill="#FEFECE" filter="url(#fkrspisf8fpy5)" height="163.2422" id="TrajetSimple" style="stroke: #A80036; stroke-width: 1.5;" width="595" x="216" y="665"/><ellipse cx="470.75" cy="681" fill="#ADD1B2" rx="11" ry="11" style="stroke: #A80036; stroke-width: 1.0;"/><path d="M473.7188,686.6406 Q473.1406,686.9375 472.5,687.0781 Q471.8594,687.2344 471.1563,687.2344 Q468.6563,687.2344 467.3281,685.5938 Q466.0156,683.9375 466.0156,680.8125 Q466.0156,677.6875 467.3281,676.0313 Q468.6563,674.375 471.1563,674.375 Q471.8594,674.375 472.5,674.5313 Q473.1563,674.6875 473.7188,674.9844 L473.7188,677.7031 Q473.0938,677.125 472.5,676.8594 Q471.9063,676.5781 471.2813,676.5781 Q469.9375,676.5781 469.25,677.6563 Q468.5625,678.7188 468.5625,680.8125 Q468.5625,682.9063 469.25,683.9844 Q469.9375,685.0469 471.2813,685.0469 Q471.9063,685.0469 472.5,684.7813 Q473.0938,684.5 473.7188,683.9219 L473.7188,686.6406 Z "/><text fill="#000000" font-family="sans-serif" font-size="12" lengthAdjust="spacingAndGlyphs" textLength="77" x="491.25" y="685.1543">TrajetSimple</text><line style="stroke: #A80036; stroke-width: 1.5;" x1="217" x2="810" y1="697" y2="697"/><polygon fill="none" points="227,703,231,707,227,711,223,707" style="stroke: #B38D22; stroke-width: 1.0;"/><text fill="#000000" font-family="sans-serif" font-size="11" lengthAdjust="spacingAndGlyphs" textLength="138" x="236" y="711.2104">villeDepart : const char*</text><polygon fill="none" points="227,715.8047,231,719.8047,227,723.8047,223,719.8047" style="stroke: #B38D22; stroke-width: 1.0;"/><text fill="#000000" font-family="sans-serif" font-size="11" lengthAdjust="spacingAndGlyphs" textLength="140" x="236" y="724.0151">villeArrivee : const char*</text><polygon fill="none" points="227,728.6094,231,732.6094,227,736.6094,223,732.6094" style="stroke: #B38D22; stroke-width: 1.0;"/><text fill="#000000" font-family="sans-serif" font-size="11" lengthAdjust="spacingAndGlyphs" textLength="158" x="236" y="736.8198">typeTransport : const char*</text><line style="stroke: #A80036; stroke-width: 1.5;" x1="217" x2="810" y1="743.4141" y2="743.4141"/><ellipse cx="227" cy="754.4141" fill="#84BE84" rx="3" ry="3" style="stroke: #038048; stroke-width: 1.0;"/><text fill="#000000" font-family="sans-serif" font-size="11" lengthAdjust="spacingAndGlyphs" textLength="569" x="236" y="757.6245">TrajetSimple(const char* uneVilleDepart, const char* uneVilleArrivee, const char* unTypeTransport)</text><ellipse cx="227" cy="767.2188" fill="#84BE84" rx="3" ry="3" style="stroke: #038048; stroke-width: 1.0;"/><text fill="#000000" font-family="sans-serif" font-size="11" lengthAdjust="spacingAndGlyphs" textLength="128" x="236" y="770.4292">~TrajetSimple() virtual</text><ellipse cx="227" cy="780.0234" fill="#84BE84" rx="3" ry="3" style="stroke: #038048; stroke-width: 1.0;"/><text fill="#000000" font-family="sans-serif" font-size="11" lengthAdjust="spacingAndGlyphs" textLength="182" x="236" y="783.2339">estValide() const override : bool</text><ellipse cx="227" cy="792.8281" fill="#84BE84" rx="3" ry="3" style="stroke: #038048; stroke-width: 1.0;"/><text fill="#000000" font-family="sans-serif" font-size="11" lengthAdjust="spacingAndGlyphs" textLength="256" x="236" y="796.0386">afficher(ostream &amp; out) const override : void</text><ellipse cx="227" cy="805.6328" fill="#84BE84" rx="3" ry="3" style="stroke: #038048; stroke-width: 1.0;"/><text fill="#000000" font-family="sans-serif" font-size="11" lengthAdjust="spacingAndGlyphs" textLength="251" x="236" y="808.8433">getVilleDepart() const override : const char*</text><ellipse cx="227" cy="818.4375" fill="#84BE84" rx="3" ry="3" style="stroke: #038048; stroke-width: 1.0;"/><text fill="#000000" font-family="sans-serif" font-size="11" lengthAdjust="spacingAndGlyphs" textLength="253" x="236" y="821.6479">getVilleArrivee() const override : const char*</text><!--MD5=[4a26fa885c1ed9f8f456d0bd2f1a1920]
reverse link ListeChaineeTrajets to Catalogue--><path d="M535.849,206.1101 C489.914,229.03 442.3308,252.7722 399.9491,273.9191 " fill="none" id="ListeChaineeTrajets&lt;-Catalogue" style="stroke: #A80036; stroke-width: 1.0;"/><polygon fill="none" points="533.0172,199.7001,554.0385,197.0342,539.2679,212.2273,533.0172,199.7001" style="stroke: #A80036; stroke-width: 1.0;"/><text fill="#000000" font-family="sans-serif" font-size="13" lengthAdjust="spacingAndGlyphs" textLength="57" x="489.5" y="240.0669">hérite de</text><!--MD5=[be310266194dfe6eded69cccf99a6768]
reverse link Trajet to TrajetSimple--><path d="M673.5835,601.7289 C651.6018,621.608 627.0091,643.8483 603.8212,664.8182 " fill="none" id="Trajet&lt;-TrajetSimple" style="stroke: #A80036; stroke-width: 1.0;"/><polygon fill="none" points="669.1725,596.28,688.7015,588.0569,678.5629,606.6637,669.1725,596.28" style="stroke: #A80036; stroke-width: 1.0;"/><text fill="#000000" font-family="sans-serif" font-size="13" lengthAdjust="spacingAndGlyphs" textLength="57" x="650.5" y="631.0669">hérite de</text><!--MD5=[a2d5af44c5744aa72df4c9b348c355b9]
reverse link Trajet to TrajetCompose--><path d="M816.863,601.039 C842.7966,623.1463 872.2363,648.2424 899.2736,671.2907 " fill="none" id="Trajet&lt;-TrajetCompose" style="stroke: #A80036; stroke-width: 1.0;"/><polygon fill="none" points="812.3133,606.3588,801.6341,588.0569,821.3956,595.7045,812.3133,606.3588" style="stroke: #A80036; stroke-width: 1.0;"/><text fill="#000000" font-family="sans-serif" font-size="13" lengthAdjust="spacingAndGlyphs" textLength="57" x="851.5" y="631.0669">hérite de</text><!--MD5=[9de3d8099ef99faca0a795ca82be5a53]
reverse link ListeChaineeTrajets to TrajetCompose--><path d="M905.5237,211.09 C924.0672,229.964 940.5671,251.0109 952.5,274 C1018.4383,401.0316 1010.9109,573.6628 999.3233,671.2213 " fill="none" id="ListeChaineeTrajets&lt;-TrajetCompose" style="stroke: #A80036; stroke-width: 1.0;"/><polygon fill="none" points="900.533,216.002,890.9869,197.0844,910.2466,205.92,900.533,216.002" style="stroke: #A80036; stroke-width: 1.0;"/><text fill="#000000" font-family="sans-serif" font-size="13" lengthAdjust="spacingAndGlyphs" textLength="57" x="1003.5" y="455.0669">hérite de</text><!--MD5=[79bd7b056a110383aba9fe147863e601]
link ListeChaineeTrajets to MaillonListeChaineeTrajets--><path d="M743.5,197.2067 C743.5,220.9145 743.5,246.011 743.5,268.5759 " fill="none" id="ListeChaineeTrajets-&gt;MaillonListeChaineeTrajets" style="stroke: #A80036; stroke-width: 1.0;"/><polygon fill="#A80036" points="743.5,273.6505,747.5,264.6505,743.5,268.6505,739.5,264.6505,743.5,273.6505" style="stroke: #A80036; stroke-width: 1.0;"/><text fill="#000000" font-family="sans-serif" font-size="13" lengthAdjust="spacingAndGlyphs" textLength="52" x="744.5" y="240.0669">contient</text><!--MD5=[ae907e4d888eeceb7553cd1cc7fac859]
link MaillonListeChaineeTrajets to Trajet--><path d="M743.5,412.2011 C743.5,435.5898 743.5,461.3688 743.5,483.5047 " fill="none" id="MaillonListeChaineeTrajets-&gt;Trajet" style="stroke: #A80036; stroke-width: 1.0;"/><polygon fill="#A80036" points="743.5,488.7552,747.5,479.7552,743.5,483.7552,739.5,479.7552,743.5,488.7552" style="stroke: #A80036; stroke-width: 1.0;"/><text fill="#000000" font-family="sans-serif" font-size="13" lengthAdjust="spacingAndGlyphs" textLength="52" x="744.5" y="455.0669">contient</text><!--MD5=[8102906fe6c6c4b12a1d8b3104835b98]
@startuml

class Catalogue {
  +Catalogue()
  +~Catalogue() virtual
  +ajouter(Trajet* trajet) override : bool
  +supprimer(Trajet* trajet) override : bool
  +rechercheTrajetSimple(const char* villeDepart, const char* villeArrivee) const : void
  +rechercheTrajetAvancee(const char* villeDepart, const char* villeArrivee) const : void
  +afficher(ostream & out) const : void
}

class ListeChaineeTrajets {
  #premierMaillon : MaillonListeChaineeTrajets*
  #dernierMaillon : MaillonListeChaineeTrajets*
  #taille : unsigned int
  +ListeChaineeTrajets()
  +~ListeChaineeTrajets() virtual
  +ajouter(Trajet* unTrajet) virtual : bool
  +supprimer(Trajet* unTrajet) virtual : bool
  +getMaillonListeChaineeTrajets(unsigned int index) const : MaillonListeChaineeTrajets*
  +getTaille() const : unsigned int
  +estVide() const : bool
  +contient(const Trajet* unTrajet) const : bool
}

class MaillonListeChaineeTrajets {
  #trajet : Trajet*
  #maillonSuivant : MaillonListeChaineeTrajets*
  +MaillonListeChaineeTrajets(Trajet* unTrajet)
  +~MaillonListeChaineeTrajets() virtual
  +getMaillonSuivant() const : MaillonListeChaineeTrajets*
  +setMaillonSuivant(MaillonListeChaineeTrajets* unMaillon) : void
  +getTrajet() const : Trajet*
}

class StringHelper {
  +strempty(const char* str) static : bool
}

class Trajet {
  +estValide() const virtual : bool
  +afficher(ostream & out) const virtual : void
  +getVilleDepart() const virtual : const char*
  +getVilleArrivee() const virtual : const char*
}

class TrajetCompose  {
  +TrajetCompose()
  +~TrajetCompose() virtual
  +ajouter(Trajet* trajet) override : bool
  +supprimer(Trajet* trajet) override : bool
  +estValide() const override : bool
  +afficher(ostream & out) const override : void
  +getVilleDepart() const override : const char*
  +getVilleArrivee() const override : const char*
}

class TrajetSimple {
  #villeDepart : const char*
  #villeArrivee : const char*
  #typeTransport : const char*
  +TrajetSimple(const char* uneVilleDepart, const char* uneVilleArrivee, const char* unTypeTransport)
  +~TrajetSimple() virtual
  +estValide() const override : bool
  +afficher(ostream & out) const override : void
  +getVilleDepart() const override : const char*
  +getVilleArrivee() const override : const char*
}

ListeChaineeTrajets <|- - Catalogue : "hérite de"

Trajet <|- - TrajetSimple : "hérite de"

Trajet <|- - TrajetCompose : "hérite de"

ListeChaineeTrajets <|- - TrajetCompose : "hérite de"

ListeChaineeTrajets - -> MaillonListeChaineeTrajets : "contient"

MaillonListeChaineeTrajets - -> Trajet : "contient"

@enduml

PlantUML version 1.2019.12(Sun Nov 03 11:24:54 CET 2019)
(GPL source distribution)
Java Runtime: OpenJDK Runtime Environment
JVM: OpenJDK 64-Bit Server VM
Java Version: 11.0.4+11-post-Ubuntu-1ubuntu218.04.3
Operating System: Linux
Default Encoding: UTF-8
Language: en
Country: US
--></g></svg>