<?xml version="1.0" encoding="UTF-8" standalone="no"?><svg xmlns="http://www.w3.org/2000/svg" xmlns:xlink="http://www.w3.org/1999/xlink" contentScriptType="application/ecmascript" contentStyleType="text/css" height="903px" preserveAspectRatio="none" style="width:1551px;height:903px;" version="1.1" viewBox="0 0 1551 903" width="1551px" zoomAndPan="magnify"><defs><filter height="300%" id="f1lo8ui5v0c2ve" width="300%" x="-1" y="-1"><feGaussianBlur result="blurOut" stdDeviation="2.0"/><feColorMatrix in="blurOut" result="blurOut2" type="matrix" values="0 0 0 0 0 0 0 0 0 0 0 0 0 0 0 0 0 0 .4 0"/><feOffset dx="4.0" dy="4.0" in="blurOut2" result="blurOut3"/><feBlend in="SourceGraphic" in2="blurOut3" mode="normal"/></filter></defs><g><!--MD5=[a77781830b4eef1927aef37ad01ad2c2]
class Catalogue--><rect fill="#FEFECE" filter="url(#f1lo8ui5v0c2ve)" height="163.2422" id="Catalogue" style="stroke: #A80036; stroke-width: 1.5;" width="850" x="6" y="274"/><ellipse cx="394.75" cy="290" fill="#ADD1B2" rx="11" ry="11" style="stroke: #A80036; stroke-width: 1.0;"/><path d="M397.7188,295.6406 Q397.1406,295.9375 396.5,296.0781 Q395.8594,296.2344 395.1563,296.2344 Q392.6563,296.2344 391.3281,294.5938 Q390.0156,292.9375 390.0156,289.8125 Q390.0156,286.6875 391.3281,285.0313 Q392.6563,283.375 395.1563,283.375 Q395.8594,283.375 396.5,283.5313 Q397.1563,283.6875 397.7188,283.9844 L397.7188,286.7031 Q397.0938,286.125 396.5,285.8594 Q395.9063,285.5781 395.2813,285.5781 Q393.9375,285.5781 393.25,286.6563 Q392.5625,287.7188 392.5625,289.8125 Q392.5625,291.9063 393.25,292.9844 Q393.9375,294.0469 395.2813,294.0469 Q395.9063,294.0469 396.5,293.7813 Q397.0938,293.5 397.7188,292.9219 L397.7188,295.6406 Z "/><text fill="#000000" font-family="sans-serif" font-size="12" lengthAdjust="spacingAndGlyphs" textLength="64" x="415.25" y="294.1543">Catalogue</text><line style="stroke: #A80036; stroke-width: 1.5;" x1="7" x2="855" y1="306" y2="306"/><line style="stroke: #A80036; stroke-width: 1.5;" x1="7" x2="855" y1="314" y2="314"/><ellipse cx="17" cy="325" fill="#84BE84" rx="3" ry="3" style="stroke: #038048; stroke-width: 1.0;"/><text fill="#000000" font-family="sans-serif" font-size="11" lengthAdjust="spacingAndGlyphs" textLength="65" x="26" y="328.2104">Catalogue()</text><ellipse cx="17" cy="337.8047" fill="#84BE84" rx="3" ry="3" style="stroke: #038048; stroke-width: 1.0;"/><text fill="#000000" font-family="sans-serif" font-size="11" lengthAdjust="spacingAndGlyphs" textLength="113" x="26" y="341.0151">~Catalogue() virtual</text><ellipse cx="17" cy="350.6094" fill="#84BE84" rx="3" ry="3" style="stroke: #038048; stroke-width: 1.0;"/><text fill="#000000" font-family="sans-serif" font-size="11" lengthAdjust="spacingAndGlyphs" textLength="208" x="26" y="353.8198">ajouter(Trajet* trajet) override : bool</text><ellipse cx="17" cy="363.4141" fill="#84BE84" rx="3" ry="3" style="stroke: #038048; stroke-width: 1.0;"/><text fill="#000000" font-family="sans-serif" font-size="11" lengthAdjust="spacingAndGlyphs" textLength="227" x="26" y="366.6245">supprimer(Trajet* trajet) override : bool</text><ellipse cx="17" cy="376.2188" fill="#84BE84" rx="3" ry="3" style="stroke: #038048; stroke-width: 1.0;"/><text fill="#000000" font-family="sans-serif" font-size="11" lengthAdjust="spacingAndGlyphs" textLength="462" x="26" y="379.4292">rechercheTrajetsEnDepartDe(const char* villeDepart) const : ListeChaineeTrajets</text><ellipse cx="17" cy="389.0234" fill="#84BE84" rx="3" ry="3" style="stroke: #038048; stroke-width: 1.0;"/><text fill="#000000" font-family="sans-serif" font-size="11" lengthAdjust="spacingAndGlyphs" textLength="477" x="26" y="392.2339">rechercheTrajetSimple(const char* villeDepart, const char* villeArrivee) const : void</text><ellipse cx="17" cy="401.8281" fill="#84BE84" rx="3" ry="3" style="stroke: #038048; stroke-width: 1.0;"/><text fill="#000000" font-family="sans-serif" font-size="11" lengthAdjust="spacingAndGlyphs" textLength="485" x="26" y="405.0386">rechercheTrajetAvancee(const char* villeDepart, const char* villeArrivee) const : void</text><ellipse cx="17" cy="414.6328" fill="#84BE84" rx="3" ry="3" style="stroke: #038048; stroke-width: 1.0;"/><text fill="#000000" font-family="sans-serif" font-size="11" lengthAdjust="spacingAndGlyphs" textLength="205" x="26" y="417.8433">afficher(ostream &amp; out) const : void</text><polygon fill="#FFFF44" points="17,422.4375,21,426.4375,17,430.4375,13,426.4375" style="stroke: #B38D22; stroke-width: 1.0;"/><text fill="#000000" font-family="sans-serif" font-size="11" lengthAdjust="spacingAndGlyphs" textLength="824" x="26" y="430.6479">sousRechercheTrajetAvancee(const char* villeDepart, const char* villeArrivee, bool* trajetsParcourus, ListeChaineeTrajets* chemin) const : void</text><!--MD5=[12796fd82a669cda51489a195c4d6ad7]
class ListeChaineeTrajets--><rect fill="#FEFECE" filter="url(#f1lo8ui5v0c2ve)" height="188.8516" id="ListeChaineeTrajets" style="stroke: #A80036; stroke-width: 1.5;" width="361" x="902.5" y="8"/><ellipse cx="1017.25" cy="24" fill="#ADD1B2" rx="11" ry="11" style="stroke: #A80036; stroke-width: 1.0;"/><path d="M1020.2188,29.6406 Q1019.6406,29.9375 1019,30.0781 Q1018.3594,30.2344 1017.6563,30.2344 Q1015.1563,30.2344 1013.8281,28.5938 Q1012.5156,26.9375 1012.5156,23.8125 Q1012.5156,20.6875 1013.8281,19.0313 Q1015.1563,17.375 1017.6563,17.375 Q1018.3594,17.375 1019,17.5313 Q1019.6563,17.6875 1020.2188,17.9844 L1020.2188,20.7031 Q1019.5938,20.125 1019,19.8594 Q1018.4063,19.5781 1017.7813,19.5781 Q1016.4375,19.5781 1015.75,20.6563 Q1015.0625,21.7188 1015.0625,23.8125 Q1015.0625,25.9063 1015.75,26.9844 Q1016.4375,28.0469 1017.7813,28.0469 Q1018.4063,28.0469 1019,27.7813 Q1019.5938,27.5 1020.2188,26.9219 L1020.2188,29.6406 Z "/><text fill="#000000" font-family="sans-serif" font-size="12" lengthAdjust="spacingAndGlyphs" textLength="123" x="1037.75" y="28.1543">ListeChaineeTrajets</text><line style="stroke: #A80036; stroke-width: 1.5;" x1="903.5" x2="1262.5" y1="40" y2="40"/><polygon fill="none" points="913.5,46,917.5,50,913.5,54,909.5,50" style="stroke: #B38D22; stroke-width: 1.0;"/><text fill="#000000" font-family="sans-serif" font-size="11" lengthAdjust="spacingAndGlyphs" textLength="254" x="922.5" y="54.2104">premierMaillon : MaillonListeChaineeTrajets*</text><polygon fill="none" points="913.5,58.8047,917.5,62.8047,913.5,66.8047,909.5,62.8047" style="stroke: #B38D22; stroke-width: 1.0;"/><text fill="#000000" font-family="sans-serif" font-size="11" lengthAdjust="spacingAndGlyphs" textLength="250" x="922.5" y="67.0151">dernierMaillon : MaillonListeChaineeTrajets*</text><polygon fill="none" points="913.5,71.6094,917.5,75.6094,913.5,79.6094,909.5,75.6094" style="stroke: #B38D22; stroke-width: 1.0;"/><text fill="#000000" font-family="sans-serif" font-size="11" lengthAdjust="spacingAndGlyphs" textLength="109" x="922.5" y="79.8198">taille : unsigned int</text><line style="stroke: #A80036; stroke-width: 1.5;" x1="903.5" x2="1262.5" y1="86.4141" y2="86.4141"/><ellipse cx="913.5" cy="97.4141" fill="#84BE84" rx="3" ry="3" style="stroke: #038048; stroke-width: 1.0;"/><text fill="#000000" font-family="sans-serif" font-size="11" lengthAdjust="spacingAndGlyphs" textLength="121" x="922.5" y="100.6245">ListeChaineeTrajets()</text><ellipse cx="913.5" cy="110.2188" fill="#84BE84" rx="3" ry="3" style="stroke: #038048; stroke-width: 1.0;"/><text fill="#000000" font-family="sans-serif" font-size="11" lengthAdjust="spacingAndGlyphs" textLength="169" x="922.5" y="113.4292">~ListeChaineeTrajets() virtual</text><ellipse cx="913.5" cy="123.0234" fill="#84BE84" rx="3" ry="3" style="stroke: #038048; stroke-width: 1.0;"/><text fill="#000000" font-family="sans-serif" font-size="11" lengthAdjust="spacingAndGlyphs" textLength="213" x="922.5" y="126.2339">ajouter(Trajet* unTrajet) virtual : bool</text><ellipse cx="913.5" cy="135.8281" fill="#84BE84" rx="3" ry="3" style="stroke: #038048; stroke-width: 1.0;"/><text fill="#000000" font-family="sans-serif" font-size="11" lengthAdjust="spacingAndGlyphs" textLength="232" x="922.5" y="139.0386">supprimer(Trajet* unTrajet) virtual : bool</text><ellipse cx="913.5" cy="148.6328" fill="#84BE84" rx="3" ry="3" style="stroke: #038048; stroke-width: 1.0;"/><text fill="#000000" font-family="sans-serif" font-size="11" lengthAdjust="spacingAndGlyphs" textLength="335" x="922.5" y="151.8433">get(unsigned int index) const : MaillonListeChaineeTrajets*</text><ellipse cx="913.5" cy="161.4375" fill="#84BE84" rx="3" ry="3" style="stroke: #038048; stroke-width: 1.0;"/><text fill="#000000" font-family="sans-serif" font-size="11" lengthAdjust="spacingAndGlyphs" textLength="173" x="922.5" y="164.6479">getTaille() const : unsigned int</text><ellipse cx="913.5" cy="174.2422" fill="#84BE84" rx="3" ry="3" style="stroke: #038048; stroke-width: 1.0;"/><text fill="#000000" font-family="sans-serif" font-size="11" lengthAdjust="spacingAndGlyphs" textLength="121" x="922.5" y="177.4526">estVide() const : bool</text><ellipse cx="913.5" cy="187.0469" fill="#84BE84" rx="3" ry="3" style="stroke: #038048; stroke-width: 1.0;"/><text fill="#000000" font-family="sans-serif" font-size="11" lengthAdjust="spacingAndGlyphs" textLength="249" x="922.5" y="190.2573">contient(const Trajet* unTrajet) const : bool</text><!--MD5=[f842cc64dcc4f0aeb3c284b8ad84df45]
class MaillonListeChaineeTrajets--><rect fill="#FEFECE" filter="url(#f1lo8ui5v0c2ve)" height="137.6328" id="MaillonListeChaineeTrajets" style="stroke: #A80036; stroke-width: 1.5;" width="383" x="891.5" y="286.5"/><ellipse cx="995.75" cy="302.5" fill="#ADD1B2" rx="11" ry="11" style="stroke: #A80036; stroke-width: 1.0;"/><path d="M998.7188,308.1406 Q998.1406,308.4375 997.5,308.5781 Q996.8594,308.7344 996.1563,308.7344 Q993.6563,308.7344 992.3281,307.0938 Q991.0156,305.4375 991.0156,302.3125 Q991.0156,299.1875 992.3281,297.5313 Q993.6563,295.875 996.1563,295.875 Q996.8594,295.875 997.5,296.0313 Q998.1563,296.1875 998.7188,296.4844 L998.7188,299.2031 Q998.0938,298.625 997.5,298.3594 Q996.9063,298.0781 996.2813,298.0781 Q994.9375,298.0781 994.25,299.1563 Q993.5625,300.2188 993.5625,302.3125 Q993.5625,304.4063 994.25,305.4844 Q994.9375,306.5469 996.2813,306.5469 Q996.9063,306.5469 997.5,306.2813 Q998.0938,306 998.7188,305.4219 L998.7188,308.1406 Z "/><text fill="#000000" font-family="sans-serif" font-size="12" lengthAdjust="spacingAndGlyphs" textLength="166" x="1016.25" y="306.6543">MaillonListeChaineeTrajets</text><line style="stroke: #A80036; stroke-width: 1.5;" x1="892.5" x2="1273.5" y1="318.5" y2="318.5"/><polygon fill="none" points="902.5,324.5,906.5,328.5,902.5,332.5,898.5,328.5" style="stroke: #B38D22; stroke-width: 1.0;"/><text fill="#000000" font-family="sans-serif" font-size="11" lengthAdjust="spacingAndGlyphs" textLength="81" x="911.5" y="332.7104">trajet : Trajet*</text><polygon fill="none" points="902.5,337.3047,906.5,341.3047,902.5,345.3047,898.5,341.3047" style="stroke: #B38D22; stroke-width: 1.0;"/><text fill="#000000" font-family="sans-serif" font-size="11" lengthAdjust="spacingAndGlyphs" textLength="253" x="911.5" y="345.5151">maillonSuivant : MaillonListeChaineeTrajets*</text><line style="stroke: #A80036; stroke-width: 1.5;" x1="892.5" x2="1273.5" y1="352.1094" y2="352.1094"/><ellipse cx="902.5" cy="363.1094" fill="#84BE84" rx="3" ry="3" style="stroke: #038048; stroke-width: 1.0;"/><text fill="#000000" font-family="sans-serif" font-size="11" lengthAdjust="spacingAndGlyphs" textLength="250" x="911.5" y="366.3198">MaillonListeChaineeTrajets(Trajet* unTrajet)</text><ellipse cx="902.5" cy="375.9141" fill="#84BE84" rx="3" ry="3" style="stroke: #038048; stroke-width: 1.0;"/><text fill="#000000" font-family="sans-serif" font-size="11" lengthAdjust="spacingAndGlyphs" textLength="208" x="911.5" y="379.1245">~MaillonListeChaineeTrajets() virtual</text><ellipse cx="902.5" cy="388.7188" fill="#84BE84" rx="3" ry="3" style="stroke: #038048; stroke-width: 1.0;"/><text fill="#000000" font-family="sans-serif" font-size="11" lengthAdjust="spacingAndGlyphs" textLength="312" x="911.5" y="391.9292">getMaillonSuivant() const : MaillonListeChaineeTrajets*</text><ellipse cx="902.5" cy="401.5234" fill="#84BE84" rx="3" ry="3" style="stroke: #038048; stroke-width: 1.0;"/><text fill="#000000" font-family="sans-serif" font-size="11" lengthAdjust="spacingAndGlyphs" textLength="357" x="911.5" y="404.7339">setMaillonSuivant(MaillonListeChaineeTrajets* unMaillon) : void</text><ellipse cx="902.5" cy="414.3281" fill="#84BE84" rx="3" ry="3" style="stroke: #038048; stroke-width: 1.0;"/><text fill="#000000" font-family="sans-serif" font-size="11" lengthAdjust="spacingAndGlyphs" textLength="145" x="911.5" y="417.5386">getTrajet() const : Trajet*</text><!--MD5=[6715f46a36203688ef12a3337d474df8]
class StringHelper--><rect fill="#FEFECE" filter="url(#f1lo8ui5v0c2ve)" height="60.8047" id="StringHelper" style="stroke: #A80036; stroke-width: 1.5;" width="242" x="1298" y="72"/><ellipse cx="1375.75" cy="88" fill="#ADD1B2" rx="11" ry="11" style="stroke: #A80036; stroke-width: 1.0;"/><path d="M1378.7188,93.6406 Q1378.1406,93.9375 1377.5,94.0781 Q1376.8594,94.2344 1376.1563,94.2344 Q1373.6563,94.2344 1372.3281,92.5938 Q1371.0156,90.9375 1371.0156,87.8125 Q1371.0156,84.6875 1372.3281,83.0313 Q1373.6563,81.375 1376.1563,81.375 Q1376.8594,81.375 1377.5,81.5313 Q1378.1563,81.6875 1378.7188,81.9844 L1378.7188,84.7031 Q1378.0938,84.125 1377.5,83.8594 Q1376.9063,83.5781 1376.2813,83.5781 Q1374.9375,83.5781 1374.25,84.6563 Q1373.5625,85.7188 1373.5625,87.8125 Q1373.5625,89.9063 1374.25,90.9844 Q1374.9375,92.0469 1376.2813,92.0469 Q1376.9063,92.0469 1377.5,91.7813 Q1378.0938,91.5 1378.7188,90.9219 L1378.7188,93.6406 Z "/><text fill="#000000" font-family="sans-serif" font-size="12" lengthAdjust="spacingAndGlyphs" textLength="78" x="1396.25" y="92.1543">StringHelper</text><line style="stroke: #A80036; stroke-width: 1.5;" x1="1299" x2="1539" y1="104" y2="104"/><line style="stroke: #A80036; stroke-width: 1.5;" x1="1299" x2="1539" y1="112" y2="112"/><ellipse cx="1309" cy="123" fill="#84BE84" rx="3" ry="3" style="stroke: #038048; stroke-width: 1.0;"/><text fill="#000000" font-family="sans-serif" font-size="11" lengthAdjust="spacingAndGlyphs" textLength="216" x="1318" y="126.2104">strempty(const char* str) static : bool</text><!--MD5=[5d57f717c5d5963ea0d5127ec122f9f6]
class Trajet--><rect fill="#FEFECE" filter="url(#f1lo8ui5v0c2ve)" height="137.6328" id="Trajet" style="stroke: #A80036; stroke-width: 1.5;" width="270" x="948" y="514"/><ellipse cx="1060.75" cy="530" fill="#ADD1B2" rx="11" ry="11" style="stroke: #A80036; stroke-width: 1.0;"/><path d="M1063.7188,535.6406 Q1063.1406,535.9375 1062.5,536.0781 Q1061.8594,536.2344 1061.1563,536.2344 Q1058.6563,536.2344 1057.3281,534.5938 Q1056.0156,532.9375 1056.0156,529.8125 Q1056.0156,526.6875 1057.3281,525.0313 Q1058.6563,523.375 1061.1563,523.375 Q1061.8594,523.375 1062.5,523.5313 Q1063.1563,523.6875 1063.7188,523.9844 L1063.7188,526.7031 Q1063.0938,526.125 1062.5,525.8594 Q1061.9063,525.5781 1061.2813,525.5781 Q1059.9375,525.5781 1059.25,526.6563 Q1058.5625,527.7188 1058.5625,529.8125 Q1058.5625,531.9063 1059.25,532.9844 Q1059.9375,534.0469 1061.2813,534.0469 Q1061.9063,534.0469 1062.5,533.7813 Q1063.0938,533.5 1063.7188,532.9219 L1063.7188,535.6406 Z "/><text fill="#000000" font-family="sans-serif" font-size="12" lengthAdjust="spacingAndGlyphs" textLength="36" x="1081.25" y="534.1543">Trajet</text><line style="stroke: #A80036; stroke-width: 1.5;" x1="949" x2="1217" y1="546" y2="546"/><polygon fill="none" points="959,552,963,556,959,560,955,556" style="stroke: #B38D22; stroke-width: 1.0;"/><text fill="#000000" font-family="sans-serif" font-size="11" lengthAdjust="spacingAndGlyphs" textLength="115" x="968" y="560.2104">indice : unsigned int</text><line style="stroke: #A80036; stroke-width: 1.5;" x1="949" x2="1217" y1="566.8047" y2="566.8047"/><ellipse cx="959" cy="577.8047" fill="#84BE84" rx="3" ry="3" style="stroke: #038048; stroke-width: 1.0;"/><text fill="#000000" font-family="sans-serif" font-size="11" lengthAdjust="spacingAndGlyphs" textLength="170" x="968" y="581.0151">estValide() const virtual : bool</text><ellipse cx="959" cy="590.6094" fill="#84BE84" rx="3" ry="3" style="stroke: #038048; stroke-width: 1.0;"/><text fill="#000000" font-family="sans-serif" font-size="11" lengthAdjust="spacingAndGlyphs" textLength="244" x="968" y="593.8198">afficher(ostream &amp; out) const virtual : void</text><ellipse cx="959" cy="603.4141" fill="#84BE84" rx="3" ry="3" style="stroke: #038048; stroke-width: 1.0;"/><text fill="#000000" font-family="sans-serif" font-size="11" lengthAdjust="spacingAndGlyphs" textLength="239" x="968" y="606.6245">getVilleDepart() const virtual : const char*</text><ellipse cx="959" cy="616.2188" fill="#84BE84" rx="3" ry="3" style="stroke: #038048; stroke-width: 1.0;"/><text fill="#000000" font-family="sans-serif" font-size="11" lengthAdjust="spacingAndGlyphs" textLength="241" x="968" y="619.4292">getVilleArrivee() const virtual : const char*</text><ellipse cx="959" cy="629.0234" fill="#84BE84" rx="3" ry="3" style="stroke: #038048; stroke-width: 1.0;"/><text fill="#000000" font-family="sans-serif" font-size="11" lengthAdjust="spacingAndGlyphs" textLength="176" x="968" y="632.2339">getIndice() const : unsigned int</text><ellipse cx="959" cy="641.8281" fill="#84BE84" rx="3" ry="3" style="stroke: #038048; stroke-width: 1.0;"/><text fill="#000000" font-family="sans-serif" font-size="11" lengthAdjust="spacingAndGlyphs" textLength="215" x="968" y="645.0386">setIndice(unsigned int unIndice) : void</text><!--MD5=[de0310d8d2a212b67bd89d47197da413]
class TrajetCompose--><rect fill="#FEFECE" filter="url(#f1lo8ui5v0c2ve)" height="150.4375" id="TrajetCompose" style="stroke: #A80036; stroke-width: 1.5;" width="282" x="1186" y="735.5"/><ellipse cx="1275.75" cy="751.5" fill="#ADD1B2" rx="11" ry="11" style="stroke: #A80036; stroke-width: 1.0;"/><path d="M1278.7188,757.1406 Q1278.1406,757.4375 1277.5,757.5781 Q1276.8594,757.7344 1276.1563,757.7344 Q1273.6563,757.7344 1272.3281,756.0938 Q1271.0156,754.4375 1271.0156,751.3125 Q1271.0156,748.1875 1272.3281,746.5313 Q1273.6563,744.875 1276.1563,744.875 Q1276.8594,744.875 1277.5,745.0313 Q1278.1563,745.1875 1278.7188,745.4844 L1278.7188,748.2031 Q1278.0938,747.625 1277.5,747.3594 Q1276.9063,747.0781 1276.2813,747.0781 Q1274.9375,747.0781 1274.25,748.1563 Q1273.5625,749.2188 1273.5625,751.3125 Q1273.5625,753.4063 1274.25,754.4844 Q1274.9375,755.5469 1276.2813,755.5469 Q1276.9063,755.5469 1277.5,755.2813 Q1278.0938,755 1278.7188,754.4219 L1278.7188,757.1406 Z "/><text fill="#000000" font-family="sans-serif" font-size="12" lengthAdjust="spacingAndGlyphs" textLength="94" x="1296.25" y="755.6543">TrajetCompose</text><line style="stroke: #A80036; stroke-width: 1.5;" x1="1187" x2="1467" y1="767.5" y2="767.5"/><line style="stroke: #A80036; stroke-width: 1.5;" x1="1187" x2="1467" y1="775.5" y2="775.5"/><ellipse cx="1197" cy="786.5" fill="#84BE84" rx="3" ry="3" style="stroke: #038048; stroke-width: 1.0;"/><text fill="#000000" font-family="sans-serif" font-size="11" lengthAdjust="spacingAndGlyphs" textLength="95" x="1206" y="789.7104">TrajetCompose()</text><ellipse cx="1197" cy="799.3047" fill="#84BE84" rx="3" ry="3" style="stroke: #038048; stroke-width: 1.0;"/><text fill="#000000" font-family="sans-serif" font-size="11" lengthAdjust="spacingAndGlyphs" textLength="143" x="1206" y="802.5151">~TrajetCompose() virtual</text><ellipse cx="1197" cy="812.1094" fill="#84BE84" rx="3" ry="3" style="stroke: #038048; stroke-width: 1.0;"/><text fill="#000000" font-family="sans-serif" font-size="11" lengthAdjust="spacingAndGlyphs" textLength="208" x="1206" y="815.3198">ajouter(Trajet* trajet) override : bool</text><ellipse cx="1197" cy="824.9141" fill="#84BE84" rx="3" ry="3" style="stroke: #038048; stroke-width: 1.0;"/><text fill="#000000" font-family="sans-serif" font-size="11" lengthAdjust="spacingAndGlyphs" textLength="227" x="1206" y="828.1245">supprimer(Trajet* trajet) override : bool</text><ellipse cx="1197" cy="837.7188" fill="#84BE84" rx="3" ry="3" style="stroke: #038048; stroke-width: 1.0;"/><text fill="#000000" font-family="sans-serif" font-size="11" lengthAdjust="spacingAndGlyphs" textLength="182" x="1206" y="840.9292">estValide() const override : bool</text><ellipse cx="1197" cy="850.5234" fill="#84BE84" rx="3" ry="3" style="stroke: #038048; stroke-width: 1.0;"/><text fill="#000000" font-family="sans-serif" font-size="11" lengthAdjust="spacingAndGlyphs" textLength="256" x="1206" y="853.7339">afficher(ostream &amp; out) const override : void</text><ellipse cx="1197" cy="863.3281" fill="#84BE84" rx="3" ry="3" style="stroke: #038048; stroke-width: 1.0;"/><text fill="#000000" font-family="sans-serif" font-size="11" lengthAdjust="spacingAndGlyphs" textLength="251" x="1206" y="866.5386">getVilleDepart() const override : const char*</text><ellipse cx="1197" cy="876.1328" fill="#84BE84" rx="3" ry="3" style="stroke: #038048; stroke-width: 1.0;"/><text fill="#000000" font-family="sans-serif" font-size="11" lengthAdjust="spacingAndGlyphs" textLength="253" x="1206" y="879.3433">getVilleArrivee() const override : const char*</text><!--MD5=[dae9d1b019c0fc0a0d77fc2f49737a6b]
class TrajetSimple--><rect fill="#FEFECE" filter="url(#f1lo8ui5v0c2ve)" height="163.2422" id="TrajetSimple" style="stroke: #A80036; stroke-width: 1.5;" width="595" x="555.5" y="729"/><ellipse cx="810.25" cy="745" fill="#ADD1B2" rx="11" ry="11" style="stroke: #A80036; stroke-width: 1.0;"/><path d="M813.2188,750.6406 Q812.6406,750.9375 812,751.0781 Q811.3594,751.2344 810.6563,751.2344 Q808.1563,751.2344 806.8281,749.5938 Q805.5156,747.9375 805.5156,744.8125 Q805.5156,741.6875 806.8281,740.0313 Q808.1563,738.375 810.6563,738.375 Q811.3594,738.375 812,738.5313 Q812.6563,738.6875 813.2188,738.9844 L813.2188,741.7031 Q812.5938,741.125 812,740.8594 Q811.4063,740.5781 810.7813,740.5781 Q809.4375,740.5781 808.75,741.6563 Q808.0625,742.7188 808.0625,744.8125 Q808.0625,746.9063 808.75,747.9844 Q809.4375,749.0469 810.7813,749.0469 Q811.4063,749.0469 812,748.7813 Q812.5938,748.5 813.2188,747.9219 L813.2188,750.6406 Z "/><text fill="#000000" font-family="sans-serif" font-size="12" lengthAdjust="spacingAndGlyphs" textLength="77" x="830.75" y="749.1543">TrajetSimple</text><line style="stroke: #A80036; stroke-width: 1.5;" x1="556.5" x2="1149.5" y1="761" y2="761"/><polygon fill="none" points="566.5,767,570.5,771,566.5,775,562.5,771" style="stroke: #B38D22; stroke-width: 1.0;"/><text fill="#000000" font-family="sans-serif" font-size="11" lengthAdjust="spacingAndGlyphs" textLength="138" x="575.5" y="775.2104">villeDepart : const char*</text><polygon fill="none" points="566.5,779.8047,570.5,783.8047,566.5,787.8047,562.5,783.8047" style="stroke: #B38D22; stroke-width: 1.0;"/><text fill="#000000" font-family="sans-serif" font-size="11" lengthAdjust="spacingAndGlyphs" textLength="140" x="575.5" y="788.0151">villeArrivee : const char*</text><polygon fill="none" points="566.5,792.6094,570.5,796.6094,566.5,800.6094,562.5,796.6094" style="stroke: #B38D22; stroke-width: 1.0;"/><text fill="#000000" font-family="sans-serif" font-size="11" lengthAdjust="spacingAndGlyphs" textLength="158" x="575.5" y="800.8198">typeTransport : const char*</text><line style="stroke: #A80036; stroke-width: 1.5;" x1="556.5" x2="1149.5" y1="807.4141" y2="807.4141"/><ellipse cx="566.5" cy="818.4141" fill="#84BE84" rx="3" ry="3" style="stroke: #038048; stroke-width: 1.0;"/><text fill="#000000" font-family="sans-serif" font-size="11" lengthAdjust="spacingAndGlyphs" textLength="569" x="575.5" y="821.6245">TrajetSimple(const char* uneVilleDepart, const char* uneVilleArrivee, const char* unTypeTransport)</text><ellipse cx="566.5" cy="831.2188" fill="#84BE84" rx="3" ry="3" style="stroke: #038048; stroke-width: 1.0;"/><text fill="#000000" font-family="sans-serif" font-size="11" lengthAdjust="spacingAndGlyphs" textLength="128" x="575.5" y="834.4292">~TrajetSimple() virtual</text><ellipse cx="566.5" cy="844.0234" fill="#84BE84" rx="3" ry="3" style="stroke: #038048; stroke-width: 1.0;"/><text fill="#000000" font-family="sans-serif" font-size="11" lengthAdjust="spacingAndGlyphs" textLength="182" x="575.5" y="847.2339">estValide() const override : bool</text><ellipse cx="566.5" cy="856.8281" fill="#84BE84" rx="3" ry="3" style="stroke: #038048; stroke-width: 1.0;"/><text fill="#000000" font-family="sans-serif" font-size="11" lengthAdjust="spacingAndGlyphs" textLength="256" x="575.5" y="860.0386">afficher(ostream &amp; out) const override : void</text><ellipse cx="566.5" cy="869.6328" fill="#84BE84" rx="3" ry="3" style="stroke: #038048; stroke-width: 1.0;"/><text fill="#000000" font-family="sans-serif" font-size="11" lengthAdjust="spacingAndGlyphs" textLength="251" x="575.5" y="872.8433">getVilleDepart() const override : const char*</text><ellipse cx="566.5" cy="882.4375" fill="#84BE84" rx="3" ry="3" style="stroke: #038048; stroke-width: 1.0;"/><text fill="#000000" font-family="sans-serif" font-size="11" lengthAdjust="spacingAndGlyphs" textLength="253" x="575.5" y="885.6479">getVilleArrivee() const override : const char*</text><!--MD5=[4a26fa885c1ed9f8f456d0bd2f1a1920]
reverse link ListeChaineeTrajets to Catalogue--><path d="M883.5038,179.9119 C806.7672,209.6885 718.9624,243.76 641.2445,273.9174 " fill="none" id="ListeChaineeTrajets&lt;-Catalogue" style="stroke: #A80036; stroke-width: 1.0;"/><polygon fill="none" points="881.0697,173.3479,902.2475,172.6386,886.1343,186.3997,881.0697,173.3479" style="stroke: #A80036; stroke-width: 1.0;"/><text fill="#000000" font-family="sans-serif" font-size="13" lengthAdjust="spacingAndGlyphs" textLength="57" x="758" y="240.0669">hérite de</text><!--MD5=[be310266194dfe6eded69cccf99a6768]
reverse link Trajet to TrajetSimple--><path d="M998.6999,666.3838 C978.0944,686.7654 956.0699,708.5504 935.5473,728.8499 " fill="none" id="Trajet&lt;-TrajetSimple" style="stroke: #A80036; stroke-width: 1.0;"/><polygon fill="none" points="993.9138,661.272,1013.0556,652.1841,1003.759,671.2255,993.9138,661.272" style="stroke: #A80036; stroke-width: 1.0;"/><text fill="#000000" font-family="sans-serif" font-size="13" lengthAdjust="spacingAndGlyphs" textLength="57" x="983" y="695.0669">hérite de</text><!--MD5=[a2d5af44c5744aa72df4c9b348c355b9]
reverse link Trajet to TrajetCompose--><path d="M1172.0531,666.031 C1196.3577,688.6921 1222.5482,713.1116 1246.3557,735.3091 " fill="none" id="Trajet&lt;-TrajetCompose" style="stroke: #A80036; stroke-width: 1.0;"/><polygon fill="none" points="1167.0563,670.9429,1157.2018,652.1841,1176.6036,660.7032,1167.0563,670.9429" style="stroke: #A80036; stroke-width: 1.0;"/><text fill="#000000" font-family="sans-serif" font-size="13" lengthAdjust="spacingAndGlyphs" textLength="57" x="1206" y="695.0669">hérite de</text><!--MD5=[9de3d8099ef99faca0a795ca82be5a53]
reverse link ListeChaineeTrajets to TrajetCompose--><path d="M1245.411,211.1982 C1263.8446,230.0342 1280.211,251.0419 1292,274 C1368.5344,423.0441 1354.9487,626.843 1339.9948,735.3354 " fill="none" id="ListeChaineeTrajets&lt;-TrajetCompose" style="stroke: #A80036; stroke-width: 1.0;"/><polygon fill="none" points="1240.4671,216.1551,1230.9533,197.2212,1250.1979,206.0896,1240.4671,216.1551" style="stroke: #A80036; stroke-width: 1.0;"/><text fill="#000000" font-family="sans-serif" font-size="13" lengthAdjust="spacingAndGlyphs" textLength="57" x="1348" y="480.0669">hérite de</text><!--MD5=[79bd7b056a110383aba9fe147863e601]
link ListeChaineeTrajets to MaillonListeChaineeTrajets--><path d="M1083,197.0676 C1083,224.8313 1083,254.7908 1083,281.1051 " fill="none" id="ListeChaineeTrajets-&gt;MaillonListeChaineeTrajets" style="stroke: #A80036; stroke-width: 1.0;"/><polygon fill="#A80036" points="1083,286.3176,1087,277.3176,1083,281.3176,1079,277.3176,1083,286.3176" style="stroke: #A80036; stroke-width: 1.0;"/><text fill="#000000" font-family="sans-serif" font-size="13" lengthAdjust="spacingAndGlyphs" textLength="52" x="1084" y="240.0669">contient</text><!--MD5=[ae907e4d888eeceb7553cd1cc7fac859]
link MaillonListeChaineeTrajets to Trajet--><path d="M1083,424.6841 C1083,451.2664 1083,481.7057 1083,508.7454 " fill="none" id="MaillonListeChaineeTrajets-&gt;Trajet" style="stroke: #A80036; stroke-width: 1.0;"/><polygon fill="#A80036" points="1083,513.753,1087,504.753,1083,508.753,1079,504.753,1083,513.753" style="stroke: #A80036; stroke-width: 1.0;"/><text fill="#000000" font-family="sans-serif" font-size="13" lengthAdjust="spacingAndGlyphs" textLength="52" x="1084" y="480.0669">contient</text><!--MD5=[e8c192f2ec7df780245c02d96934c13e]
@startuml

class Catalogue {
  +Catalogue()
  +~Catalogue() virtual
  +ajouter(Trajet* trajet) override : bool
  +supprimer(Trajet* trajet) override : bool
  +rechercheTrajetsEnDepartDe(const char* villeDepart) const : ListeChaineeTrajets
  +rechercheTrajetSimple(const char* villeDepart, const char* villeArrivee) const : void
  +rechercheTrajetAvancee(const char* villeDepart, const char* villeArrivee) const : void
  +afficher(ostream & out) const : void
  #sousRechercheTrajetAvancee(const char* villeDepart, const char* villeArrivee, bool* trajetsParcourus, ListeChaineeTrajets* chemin) const : void
}

class ListeChaineeTrajets {
  #premierMaillon : MaillonListeChaineeTrajets*
  #dernierMaillon : MaillonListeChaineeTrajets*
  #taille : unsigned int
  +ListeChaineeTrajets()
  +~ListeChaineeTrajets() virtual
  +ajouter(Trajet* unTrajet) virtual : bool
  +supprimer(Trajet* unTrajet) virtual : bool
  +get(unsigned int index) const : MaillonListeChaineeTrajets*
  +getTaille() const : unsigned int
  +estVide() const : bool
  +contient(const Trajet* unTrajet) const : bool
}

class MaillonListeChaineeTrajets {
  #trajet : Trajet*
  #maillonSuivant : MaillonListeChaineeTrajets*
  +MaillonListeChaineeTrajets(Trajet* unTrajet)
  +~MaillonListeChaineeTrajets() virtual
  +getMaillonSuivant() const : MaillonListeChaineeTrajets*
  +setMaillonSuivant(MaillonListeChaineeTrajets* unMaillon) : void
  +getTrajet() const : Trajet*
}

class StringHelper {
  +strempty(const char* str) static : bool
}

class Trajet {
  +estValide() const virtual : bool
  +afficher(ostream & out) const virtual : void
  +getVilleDepart() const virtual : const char*
  +getVilleArrivee() const virtual : const char*
  +getIndice() const : unsigned int
  +setIndice(unsigned int unIndice) : void
  #indice : unsigned int
}

class TrajetCompose  {
  +TrajetCompose()
  +~TrajetCompose() virtual
  +ajouter(Trajet* trajet) override : bool
  +supprimer(Trajet* trajet) override : bool
  +estValide() const override : bool
  +afficher(ostream & out) const override : void
  +getVilleDepart() const override : const char*
  +getVilleArrivee() const override : const char*
}

class TrajetSimple {
  #villeDepart : const char*
  #villeArrivee : const char*
  #typeTransport : const char*
  +TrajetSimple(const char* uneVilleDepart, const char* uneVilleArrivee, const char* unTypeTransport)
  +~TrajetSimple() virtual
  +estValide() const override : bool
  +afficher(ostream & out) const override : void
  +getVilleDepart() const override : const char*
  +getVilleArrivee() const override : const char*
}

ListeChaineeTrajets <|- - Catalogue : "hérite de"

Trajet <|- - TrajetSimple : "hérite de"

Trajet <|- - TrajetCompose : "hérite de"

ListeChaineeTrajets <|- - TrajetCompose : "hérite de"

ListeChaineeTrajets - -> MaillonListeChaineeTrajets : "contient"

MaillonListeChaineeTrajets - -> Trajet : "contient"

@enduml

PlantUML version 1.2019.12(Sun Nov 03 11:24:54 CET 2019)
(GPL source distribution)
Java Runtime: OpenJDK Runtime Environment
JVM: OpenJDK 64-Bit Server VM
Java Version: 11.0.4+11-post-Ubuntu-1ubuntu218.04.3
Operating System: Linux
Default Encoding: UTF-8
Language: en
Country: US
--></g></svg>