<?xml version="1.0" encoding="UTF-8" standalone="no"?>
<!DOCTYPE svg PUBLIC "-//W3C//DTD SVG 1.1//EN"
 "http://www.w3.org/Graphics/SVG/1.1/DTD/svg11.dtd">
<!-- Generated by graphviz version 2.40.1 (20161225.0304)
 -->
<!-- Title: graph3 Pages: 1 -->
<svg width="440pt" height="354pt"
 viewBox="0.00 0.00 439.90 354.44" xmlns="http://www.w3.org/2000/svg" xmlns:xlink="http://www.w3.org/1999/xlink">
<g id="graph0" class="graph" transform="scale(1 1) rotate(0) translate(4 350.4363)">
<title>graph3</title>
<polygon fill="#ffffff" stroke="transparent" points="-4,4 -4,-350.4363 435.9045,-350.4363 435.9045,4 -4,4"/>
<!-- Lyon -->
<g id="node1" class="node">
<title>Lyon</title>
<ellipse fill="#d3d3d3" stroke="#000000" cx="313.6918" cy="-18" rx="29.4969" ry="18"/>
<text text-anchor="middle" x="313.6918" y="-14.3" font-family="Times,serif" font-size="14.00" fill="#000000">Lyon</text>
</g>
<!-- Paris -->
<g id="node2" class="node">
<title>Paris</title>
<ellipse fill="#d3d3d3" stroke="#000000" cx="403.307" cy="-173.2182" rx="28.6953" ry="18"/>
<text text-anchor="middle" x="403.307" y="-169.5182" font-family="Times,serif" font-size="14.00" fill="#000000">Paris</text>
</g>
<!-- Lyon&#45;&gt;Paris -->
<g id="edge1" class="edge">
<title>Lyon&#45;&gt;Paris</title>
<path fill="none" stroke="#000000" d="M319.075,-35.8751C331.7709,-63.7125 362.3308,-117.3094 383.0705,-148.7155"/>
<polygon fill="#000000" stroke="#000000" points="380.3932,-151.004 388.8987,-157.3212 386.1891,-147.0787 380.3932,-151.004"/>
</g>
<!-- Bordeaux -->
<g id="node3" class="node">
<title>Bordeaux</title>
<ellipse fill="#d3d3d3" stroke="#000000" cx="44.846" cy="-173.2182" rx="44.6926" ry="18"/>
<text text-anchor="middle" x="44.846" y="-169.5182" font-family="Times,serif" font-size="14.00" fill="#000000">Bordeaux</text>
</g>
<!-- Lyon&#45;&gt;Bordeaux -->
<g id="edge2" class="edge">
<title>Lyon&#45;&gt;Bordeaux</title>
<path fill="none" stroke="#000000" d="M288.7802,-27.7872C238.7702,-52.6071 126.583,-117.1773 73.5759,-151.4324"/>
<polygon fill="#000000" stroke="#000000" points="71.4374,-148.6492 64.994,-157.0595 75.2758,-154.503 71.4374,-148.6492"/>
</g>
<!-- Marseille -->
<g id="node4" class="node">
<title>Marseille</title>
<ellipse fill="#d3d3d3" stroke="#000000" cx="134.4613" cy="-328.4363" rx="44.393" ry="18"/>
<text text-anchor="middle" x="134.4613" y="-324.7363" font-family="Times,serif" font-size="14.00" fill="#000000">Marseille</text>
</g>
<!-- Lyon&#45;&gt;Marseille -->
<g id="edge3" class="edge">
<title>Lyon&#45;&gt;Marseille</title>
<path fill="none" stroke="#000000" d="M300.3574,-34.3443C266.2726,-84.7618 177.639,-237.9167 145.8084,-300.9421"/>
<polygon fill="#000000" stroke="#000000" points="142.4991,-299.7385 141.2045,-310.2539 148.774,-302.8409 142.4991,-299.7385"/>
</g>
<!-- Toulon -->
<g id="node5" class="node">
<title>Toulon</title>
<ellipse fill="#d3d3d3" stroke="#000000" cx="313.6918" cy="-328.4363" rx="36.2938" ry="18"/>
<text text-anchor="middle" x="313.6918" y="-324.7363" font-family="Times,serif" font-size="14.00" fill="#000000">Toulon</text>
</g>
<!-- Lyon&#45;&gt;Toulon -->
<g id="edge4" class="edge">
<title>Lyon&#45;&gt;Toulon</title>
<path fill="none" stroke="#000000" d="M310.316,-36.0322C306.0731,-87.7917 305.8316,-237.1355 309.5914,-300.0051"/>
<polygon fill="#000000" stroke="#000000" points="306.1258,-300.6216 310.312,-310.3544 313.1089,-300.1354 306.1258,-300.6216"/>
</g>
<!-- Valenciennes -->
<g id="node6" class="node">
<title>Valenciennes</title>
<ellipse fill="#d3d3d3" stroke="#000000" cx="134.4613" cy="-18" rx="57.6901" ry="18"/>
<text text-anchor="middle" x="134.4613" y="-14.3" font-family="Times,serif" font-size="14.00" fill="#000000">Valenciennes</text>
</g>
<!-- Lyon&#45;&gt;Valenciennes -->
<g id="edge5" class="edge">
<title>Lyon&#45;&gt;Valenciennes</title>
<path fill="none" stroke="#000000" d="M285.2922,-12.9112C262.1584,-11.3824 228.5994,-10.9088 199.0067,-11.4905"/>
<polygon fill="#000000" stroke="#000000" points="198.6404,-7.9982 188.7284,-11.7402 198.8105,-14.9962 198.6404,-7.9982"/>
</g>
<!-- Paris&#45;&gt;Lyon -->
<g id="edge10" class="edge">
<title>Paris&#45;&gt;Lyon</title>
<path fill="none" stroke="#000000" d="M397.9237,-155.3431C385.2279,-127.5057 354.668,-73.9088 333.9282,-42.5026"/>
<polygon fill="#000000" stroke="#000000" points="336.6056,-40.2142 328.1001,-33.8969 330.8097,-44.1394 336.6056,-40.2142"/>
</g>
<!-- Paris&#45;&gt;Bordeaux -->
<g id="edge6" class="edge">
<title>Paris&#45;&gt;Bordeaux</title>
<path fill="none" stroke="#000000" d="M375.1792,-169.3751C315.5513,-165.9239 175.5987,-165.5457 98.3684,-168.2407"/>
<polygon fill="#000000" stroke="#000000" points="98.2176,-164.7438 88.3582,-168.6223 98.4843,-171.7387 98.2176,-164.7438"/>
</g>
<!-- Paris&#45;&gt;Marseille -->
<g id="edge7" class="edge">
<title>Paris&#45;&gt;Marseille</title>
<path fill="none" stroke="#000000" d="M378.8748,-182.7677C329.1468,-207.3903 216.5541,-272.1787 163.3227,-306.5655"/>
<polygon fill="#000000" stroke="#000000" points="161.1489,-303.8054 154.7039,-312.2145 164.9862,-309.66 161.1489,-303.8054"/>
</g>
<!-- Paris&#45;&gt;Toulon -->
<g id="edge8" class="edge">
<title>Paris&#45;&gt;Toulon</title>
<path fill="none" stroke="#000000" d="M388.9334,-189.0653C370.5677,-215.3748 339.8345,-268.2038 323.751,-300.7569"/>
<polygon fill="#000000" stroke="#000000" points="320.4129,-299.625 319.2599,-310.1569 326.7291,-302.6428 320.4129,-299.625"/>
</g>
<!-- Paris&#45;&gt;Valenciennes -->
<g id="edge9" class="edge">
<title>Paris&#45;&gt;Valenciennes</title>
<path fill="none" stroke="#000000" d="M385.8238,-158.8484C344.0906,-130.6333 237.8854,-68.8144 177.7107,-37.1903"/>
<polygon fill="#000000" stroke="#000000" points="179.3093,-34.0766 168.8225,-32.5674 176.0792,-40.2869 179.3093,-34.0766"/>
</g>
<!-- Bordeaux&#45;&gt;Lyon -->
<g id="edge12" class="edge">
<title>Bordeaux&#45;&gt;Lyon</title>
<path fill="none" stroke="#000000" d="M76.0657,-160.258C129.5432,-133.0368 237.5961,-70.6379 287.4514,-38.171"/>
<polygon fill="#000000" stroke="#000000" points="289.6518,-40.9117 296.0569,-32.4722 285.7868,-35.0754 289.6518,-40.9117"/>
</g>
<!-- Bordeaux&#45;&gt;Paris -->
<g id="edge11" class="edge">
<title>Bordeaux&#45;&gt;Paris</title>
<path fill="none" stroke="#000000" d="M88.442,-177.8176C159.1081,-180.7571 297.5186,-180.6832 364.7815,-177.5961"/>
<polygon fill="#000000" stroke="#000000" points="365.1371,-181.0825 374.9446,-177.0747 364.7784,-174.0917 365.1371,-181.0825"/>
</g>
<!-- Bordeaux&#45;&gt;Marseille -->
<g id="edge13" class="edge">
<title>Bordeaux&#45;&gt;Marseille</title>
<path fill="none" stroke="#000000" d="M50.2293,-191.0932C62.7226,-218.4865 92.5142,-270.8235 113.2245,-302.4134"/>
<polygon fill="#000000" stroke="#000000" points="110.5877,-304.7653 119.0668,-311.1179 116.4,-300.8642 110.5877,-304.7653"/>
</g>
<!-- Bordeaux&#45;&gt;Toulon -->
<g id="edge14" class="edge">
<title>Bordeaux&#45;&gt;Toulon</title>
<path fill="none" stroke="#000000" d="M65.3323,-189.6023C110.4642,-219.6536 218.8201,-282.5115 276.3662,-312.3386"/>
<polygon fill="#000000" stroke="#000000" points="274.988,-315.5648 285.4849,-317.0015 278.175,-309.3324 274.988,-315.5648"/>
</g>
<!-- Bordeaux&#45;&gt;Valenciennes -->
<g id="edge15" class="edge">
<title>Bordeaux&#45;&gt;Valenciennes</title>
<path fill="none" stroke="#000000" d="M60.0363,-156.1954C78.5735,-129.3861 108.8451,-77.2546 124.6304,-45.2165"/>
<polygon fill="#000000" stroke="#000000" points="127.8947,-46.5023 129.0352,-35.969 121.5749,-43.492 127.8947,-46.5023"/>
</g>
<!-- Marseille&#45;&gt;Lyon -->
<g id="edge17" class="edge">
<title>Marseille&#45;&gt;Lyon</title>
<path fill="none" stroke="#000000" d="M148.3908,-311.2094C183.023,-259.7293 271.3194,-107.0813 302.6784,-44.8326"/>
<polygon fill="#000000" stroke="#000000" points="305.9239,-46.1646 307.2055,-35.6476 299.6451,-43.0699 305.9239,-46.1646"/>
</g>
<!-- Marseille&#45;&gt;Paris -->
<g id="edge16" class="edge">
<title>Marseille&#45;&gt;Paris</title>
<path fill="none" stroke="#000000" d="M165.6809,-315.4762C219.1584,-288.2549 327.2114,-225.8561 377.0666,-193.3891"/>
<polygon fill="#000000" stroke="#000000" points="379.267,-196.1299 385.6721,-187.6904 375.4021,-190.2936 379.267,-196.1299"/>
</g>
<!-- Marseille&#45;&gt;Bordeaux -->
<g id="edge18" class="edge">
<title>Marseille&#45;&gt;Bordeaux</title>
<path fill="none" stroke="#000000" d="M129.078,-310.5612C116.5847,-283.168 86.793,-230.8309 66.0828,-199.2411"/>
<polygon fill="#000000" stroke="#000000" points="68.7196,-196.8892 60.2405,-190.5365 62.9073,-200.7903 68.7196,-196.8892"/>
</g>
<!-- Marseille&#45;&gt;Toulon -->
<g id="edge19" class="edge">
<title>Marseille&#45;&gt;Toulon</title>
<path fill="none" stroke="#000000" d="M176.4829,-334.2568C204.2201,-335.4556 240.5268,-335.4948 268.8251,-334.3745"/>
<polygon fill="#000000" stroke="#000000" points="269.0307,-337.8688 278.8578,-333.9093 268.7064,-330.8764 269.0307,-337.8688"/>
</g>
<!-- Marseille&#45;&gt;Valenciennes -->
<g id="edge20" class="edge">
<title>Marseille&#45;&gt;Valenciennes</title>
<path fill="none" stroke="#000000" d="M137.837,-310.4041C142.0799,-258.6447 142.3214,-109.3008 138.5616,-46.4312"/>
<polygon fill="#000000" stroke="#000000" points="142.0272,-45.8147 137.8411,-36.082 135.0441,-46.3009 142.0272,-45.8147"/>
</g>
<!-- Toulon&#45;&gt;Lyon -->
<g id="edge22" class="edge">
<title>Toulon&#45;&gt;Lyon</title>
<path fill="none" stroke="#000000" d="M317.0675,-310.4041C321.3104,-258.6447 321.5519,-109.3008 317.7921,-46.4312"/>
<polygon fill="#000000" stroke="#000000" points="321.2577,-45.8147 317.0716,-36.082 314.2746,-46.3009 321.2577,-45.8147"/>
</g>
<!-- Toulon&#45;&gt;Paris -->
<g id="edge21" class="edge">
<title>Toulon&#45;&gt;Paris</title>
<path fill="none" stroke="#000000" d="M328.6764,-311.7107C347.1725,-285.023 377.5595,-232.7168 393.4192,-200.5501"/>
<polygon fill="#000000" stroke="#000000" points="396.7019,-201.7975 397.8455,-191.2646 390.3831,-198.7854 396.7019,-201.7975"/>
</g>
<!-- Toulon&#45;&gt;Bordeaux -->
<g id="edge23" class="edge">
<title>Toulon&#45;&gt;Bordeaux</title>
<path fill="none" stroke="#000000" d="M294.5174,-312.9285C251.0259,-283.7874 144.3198,-221.7804 85.4426,-191.0182"/>
<polygon fill="#000000" stroke="#000000" points="86.9119,-187.8379 76.4208,-186.3592 83.7,-194.0575 86.9119,-187.8379"/>
</g>
<!-- Toulon&#45;&gt;Marseille -->
<g id="edge24" class="edge">
<title>Toulon&#45;&gt;Marseille</title>
<path fill="none" stroke="#000000" d="M278.7088,-322.9553C252.5548,-321.5528 216.3614,-321.3128 186.7726,-322.2355"/>
<polygon fill="#000000" stroke="#000000" points="186.4735,-318.7441 176.6094,-322.6104 186.7316,-325.7393 186.4735,-318.7441"/>
</g>
<!-- Toulon&#45;&gt;Valenciennes -->
<g id="edge25" class="edge">
<title>Toulon&#45;&gt;Valenciennes</title>
<path fill="none" stroke="#000000" d="M307.1008,-310.5705C281.9413,-258.1913 193.9117,-105.1592 154.0636,-43.8212"/>
<polygon fill="#000000" stroke="#000000" points="156.9756,-41.8793 148.5472,-35.4595 151.1326,-45.7341 156.9756,-41.8793"/>
</g>
<!-- Valenciennes&#45;&gt;Lyon -->
<g id="edge27" class="edge">
<title>Valenciennes&#45;&gt;Lyon</title>
<path fill="none" stroke="#000000" d="M188.7227,-24.2596C216.67,-25.0754 250.0806,-24.8733 275.3216,-23.6535"/>
<polygon fill="#000000" stroke="#000000" points="275.8144,-27.1312 285.5993,-23.0684 275.4165,-20.1425 275.8144,-27.1312"/>
</g>
<!-- Valenciennes&#45;&gt;Paris -->
<g id="edge26" class="edge">
<title>Valenciennes&#45;&gt;Paris</title>
<path fill="none" stroke="#000000" d="M155.8425,-34.9788C202.5331,-65.9448 313.716,-130.3304 369.7957,-159.0871"/>
<polygon fill="#000000" stroke="#000000" points="368.4476,-162.3271 378.9522,-163.7069 371.6007,-156.0775 368.4476,-162.3271"/>
</g>
<!-- Valenciennes&#45;&gt;Bordeaux -->
<g id="edge28" class="edge">
<title>Valenciennes&#45;&gt;Bordeaux</title>
<path fill="none" stroke="#000000" d="M118.8568,-35.6231C100.3383,-62.5275 70.5145,-113.9093 54.8103,-145.7313"/>
<polygon fill="#000000" stroke="#000000" points="51.5683,-144.3981 50.418,-154.9303 57.8852,-147.4143 51.5683,-144.3981"/>
</g>
<!-- Valenciennes&#45;&gt;Marseille -->
<g id="edge29" class="edge">
<title>Valenciennes&#45;&gt;Marseille</title>
<path fill="none" stroke="#000000" d="M131.0855,-36.0322C126.8426,-87.7917 126.6011,-237.1355 130.361,-300.0051"/>
<polygon fill="#000000" stroke="#000000" points="126.8953,-300.6216 131.0815,-310.3544 133.8784,-300.1354 126.8953,-300.6216"/>
</g>
<!-- Valenciennes&#45;&gt;Toulon -->
<g id="edge30" class="edge">
<title>Valenciennes&#45;&gt;Toulon</title>
<path fill="none" stroke="#000000" d="M141.2717,-36.3219C166.7434,-89.1772 254.5206,-241.7396 294.2009,-302.7867"/>
<polygon fill="#000000" stroke="#000000" points="291.4843,-305.0244 299.9167,-311.4389 297.3249,-301.1659 291.4843,-305.0244"/>
</g>
</g>
</svg>
