<?xml version="1.0" encoding="UTF-8" standalone="no"?>
<!DOCTYPE svg PUBLIC "-//W3C//DTD SVG 1.1//EN"
 "http://www.w3.org/Graphics/SVG/1.1/DTD/svg11.dtd">
<!-- Generated by graphviz version 2.40.1 (20161225.0304)
 -->
<!-- Title: graph1 Pages: 1 -->
<svg width="381pt" height="218pt"
 viewBox="0.00 0.00 380.59 218.00" xmlns="http://www.w3.org/2000/svg" xmlns:xlink="http://www.w3.org/1999/xlink">
<g id="graph0" class="graph" transform="scale(1 1) rotate(0) translate(4 214)">
<title>graph1</title>
<polygon fill="#ffffff" stroke="transparent" points="-4,4 -4,-214 376.5894,-214 376.5894,4 -4,4"/>
<!-- Paris -->
<g id="node1" class="node">
<title>Paris</title>
<ellipse fill="#d3d3d3" stroke="#000000" cx="200.7434" cy="-192" rx="28.6953" ry="18"/>
<text text-anchor="middle" x="200.7434" y="-188.3" font-family="Times,serif" font-size="14.00" fill="#000000">Paris</text>
</g>
<!-- Lyon -->
<g id="node2" class="node">
<title>Lyon</title>
<ellipse fill="#d3d3d3" stroke="#000000" cx="142.7434" cy="-105" rx="29.4969" ry="18"/>
<text text-anchor="middle" x="142.7434" y="-101.3" font-family="Times,serif" font-size="14.00" fill="#000000">Lyon</text>
</g>
<!-- Paris&#45;&gt;Lyon -->
<g id="edge1" class="edge">
<title>Paris&#45;&gt;Lyon</title>
<path fill="none" stroke="#000000" d="M174.1566,-185.3016C149.5147,-178.4917 115.5235,-167.3543 107.7434,-156 100.8942,-146.0044 106.8824,-134.9122 115.722,-125.632"/>
<polygon fill="#000000" stroke="#000000" points="118.3022,-128.0118 123.2318,-118.6336 113.5299,-122.8907 118.3022,-128.0118"/>
<text text-anchor="middle" x="121.7434" y="-144.8" font-family="Times,serif" font-size="14.00" fill="#000000">TGV</text>
</g>
<!-- Genève -->
<g id="node4" class="node">
<title>Genève</title>
<ellipse fill="#d3d3d3" stroke="#000000" cx="248.7434" cy="-105" rx="37.8943" ry="18"/>
<text text-anchor="middle" x="248.7434" y="-101.3" font-family="Times,serif" font-size="14.00" fill="#000000">Genève</text>
</g>
<!-- Paris&#45;&gt;Genève -->
<g id="edge3" class="edge">
<title>Paris&#45;&gt;Genève</title>
<path fill="none" stroke="#ff0000" d="M203.5197,-173.7031C205.5916,-163.5955 209.0717,-151.0833 214.7434,-141 217.1957,-136.6401 220.2898,-132.4023 223.6072,-128.4563"/>
<polygon fill="#ff0000" stroke="#ff0000" points="226.4259,-130.5606 230.5962,-120.821 221.2624,-125.8342 226.4259,-130.5606"/>
</g>
<!-- Paris&#45;&gt;Genève -->
<g id="edge4" class="edge">
<title>Paris&#45;&gt;Genève</title>
<path fill="none" stroke="#000000" d="M210.2266,-174.8116C217.0848,-162.3812 226.4762,-145.3593 234.2685,-131.2357"/>
<polygon fill="#000000" stroke="#000000" points="237.3492,-132.8971 239.1155,-122.4505 231.2202,-129.5155 237.3492,-132.8971"/>
<text text-anchor="middle" x="241.7434" y="-144.8" font-family="Times,serif" font-size="14.00" fill="#000000">TGV</text>
</g>
<!-- Lyon&#45;&gt;Paris -->
<g id="edge7" class="edge">
<title>Lyon&#45;&gt;Paris</title>
<path fill="none" stroke="#000000" d="M153.892,-121.723C162.3883,-134.4673 174.2302,-152.2303 183.8828,-166.7091"/>
<polygon fill="#000000" stroke="#000000" points="181.1012,-168.8465 189.5604,-175.2255 186.9255,-164.9635 181.1012,-168.8465"/>
<text text-anchor="middle" x="189.7434" y="-144.8" font-family="Times,serif" font-size="14.00" fill="#000000">TGV</text>
</g>
<!-- Clermont&#45;Ferrand -->
<g id="node5" class="node">
<title>Clermont&#45;Ferrand</title>
<ellipse fill="#d3d3d3" stroke="#000000" cx="74.7434" cy="-18" rx="74.9875" ry="18"/>
<text text-anchor="middle" x="74.7434" y="-14.3" font-family="Times,serif" font-size="14.00" fill="#000000">Clermont&#45;Ferrand</text>
</g>
<!-- Lyon&#45;&gt;Clermont&#45;Ferrand -->
<g id="edge5" class="edge">
<title>Lyon&#45;&gt;Clermont&#45;Ferrand</title>
<path fill="none" stroke="#000000" d="M129.9531,-88.636C120.1119,-76.0451 106.3236,-58.4041 94.9885,-43.9019"/>
<polygon fill="#000000" stroke="#000000" points="97.5623,-41.5113 88.6464,-35.7878 92.0471,-45.822 97.5623,-41.5113"/>
<text text-anchor="middle" x="126.7434" y="-57.8" font-family="Times,serif" font-size="14.00" fill="#000000">TER</text>
</g>
<!-- Marseille -->
<g id="node6" class="node">
<title>Marseille</title>
<ellipse fill="#d3d3d3" stroke="#000000" cx="211.7434" cy="-18" rx="44.393" ry="18"/>
<text text-anchor="middle" x="211.7434" y="-14.3" font-family="Times,serif" font-size="14.00" fill="#000000">Marseille</text>
</g>
<!-- Lyon&#45;&gt;Marseille -->
<g id="edge6" class="edge">
<title>Lyon&#45;&gt;Marseille</title>
<path fill="none" stroke="#000000" d="M155.7217,-88.636C165.8382,-75.8805 180.0652,-57.942 191.6503,-43.3348"/>
<polygon fill="#000000" stroke="#000000" points="194.6433,-45.1934 198.1151,-35.1835 189.1588,-40.8436 194.6433,-45.1934"/>
<text text-anchor="middle" x="195.7434" y="-57.8" font-family="Times,serif" font-size="14.00" fill="#000000">TGV</text>
</g>
<!-- Bordeaux -->
<g id="node3" class="node">
<title>Bordeaux</title>
<ellipse fill="#d3d3d3" stroke="#000000" cx="327.7434" cy="-192" rx="44.6926" ry="18"/>
<text text-anchor="middle" x="327.7434" y="-188.3" font-family="Times,serif" font-size="14.00" fill="#000000">Bordeaux</text>
</g>
<!-- Bordeaux&#45;&gt;Genève -->
<g id="edge2" class="edge">
<title>Bordeaux&#45;&gt;Genève</title>
<path fill="none" stroke="#ff0000" d="M318.074,-173.9728C312.1008,-163.7138 303.8508,-150.9638 294.7434,-141 289.9626,-135.7697 284.3645,-130.7126 278.7516,-126.1237"/>
<polygon fill="#ff0000" stroke="#ff0000" points="280.6474,-123.1636 270.6107,-119.77 276.3405,-128.6818 280.6474,-123.1636"/>
</g>
<!-- Genève&#45;&gt;Paris -->
<g id="edge8" class="edge">
<title>Genève&#45;&gt;Paris</title>
<path fill="none" stroke="#000000" d="M258.303,-122.44C262.5801,-132.7407 265.5068,-145.7318 259.7434,-156 254.269,-165.7533 244.9593,-173.1768 235.333,-178.674"/>
<polygon fill="#000000" stroke="#000000" points="233.4426,-175.709 226.1215,-183.3675 236.6206,-181.9461 233.4426,-175.709"/>
<text text-anchor="middle" x="276.7434" y="-144.8" font-family="Times,serif" font-size="14.00" fill="#000000">TGV</text>
</g>
</g>
</svg>
