<?xml version="1.0" encoding="UTF-8" standalone="no"?>
<!DOCTYPE svg PUBLIC "-//W3C//DTD SVG 1.1//EN"
 "http://www.w3.org/Graphics/SVG/1.1/DTD/svg11.dtd">
<!-- Generated by graphviz version 2.40.1 (20161225.0304)
 -->
<!-- Title: graph2 Pages: 1 -->
<svg width="121pt" height="260pt"
 viewBox="0.00 0.00 120.69 260.00" xmlns="http://www.w3.org/2000/svg" xmlns:xlink="http://www.w3.org/1999/xlink">
<g id="graph0" class="graph" transform="scale(1 1) rotate(0) translate(4 256)">
<title>graph2</title>
<polygon fill="#ffffff" stroke="transparent" points="-4,4 -4,-256 116.6932,-256 116.6932,4 -4,4"/>
<!-- Berlin -->
<g id="node1" class="node">
<title>Berlin</title>
<ellipse fill="#d3d3d3" stroke="#000000" cx="80.1961" cy="-234" rx="32.4942" ry="18"/>
<text text-anchor="middle" x="80.1961" y="-230.3" font-family="Times,serif" font-size="14.00" fill="#000000">Berlin</text>
</g>
<!-- Bruxelles -->
<g id="node2" class="node">
<title>Bruxelles</title>
<ellipse fill="#d3d3d3" stroke="#000000" cx="44.1961" cy="-162" rx="44.393" ry="18"/>
<text text-anchor="middle" x="44.1961" y="-158.3" font-family="Times,serif" font-size="14.00" fill="#000000">Bruxelles</text>
</g>
<!-- Berlin&#45;&gt;Bruxelles -->
<g id="edge1" class="edge">
<title>Berlin&#45;&gt;Bruxelles</title>
<path fill="none" stroke="#000000" d="M71.4815,-216.5708C67.3424,-208.2927 62.3013,-198.2104 57.6837,-188.9752"/>
<polygon fill="#000000" stroke="#000000" points="60.6832,-187.1479 53.0805,-179.7689 54.4222,-190.2784 60.6832,-187.1479"/>
</g>
<!-- Paris -->
<g id="node3" class="node">
<title>Paris</title>
<ellipse fill="#d3d3d3" stroke="#000000" cx="80.1961" cy="-90" rx="28.6953" ry="18"/>
<text text-anchor="middle" x="80.1961" y="-86.3" font-family="Times,serif" font-size="14.00" fill="#000000">Paris</text>
</g>
<!-- Bruxelles&#45;&gt;Paris -->
<g id="edge2" class="edge">
<title>Bruxelles&#45;&gt;Paris</title>
<path fill="none" stroke="#000000" d="M53.095,-144.2022C57.2674,-135.8574 62.3252,-125.7417 66.9362,-116.5197"/>
<polygon fill="#000000" stroke="#000000" points="70.1821,-117.8541 71.5238,-107.3446 63.9211,-114.7236 70.1821,-117.8541"/>
</g>
<!-- Paris&#45;&gt;Berlin -->
<g id="edge4" class="edge">
<title>Paris&#45;&gt;Berlin</title>
<path fill="none" stroke="#000000" d="M87.2628,-107.674C91.035,-118.0654 95.285,-131.5654 97.1961,-144 99.6266,-159.8143 99.6266,-164.1857 97.1961,-180 95.8374,-188.8402 93.2966,-198.2189 90.5857,-206.6363"/>
<polygon fill="#000000" stroke="#000000" points="87.196,-205.7313 87.2628,-216.326 93.8175,-208.0021 87.196,-205.7313"/>
</g>
<!-- Rome -->
<g id="node4" class="node">
<title>Rome</title>
<ellipse fill="#d3d3d3" stroke="#000000" cx="80.1961" cy="-18" rx="32.4942" ry="18"/>
<text text-anchor="middle" x="80.1961" y="-14.3" font-family="Times,serif" font-size="14.00" fill="#000000">Rome</text>
</g>
<!-- Paris&#45;&gt;Rome -->
<g id="edge3" class="edge">
<title>Paris&#45;&gt;Rome</title>
<path fill="none" stroke="#000000" d="M80.1961,-71.8314C80.1961,-64.131 80.1961,-54.9743 80.1961,-46.4166"/>
<polygon fill="#000000" stroke="#000000" points="83.6962,-46.4132 80.1961,-36.4133 76.6962,-46.4133 83.6962,-46.4132"/>
</g>
</g>
</svg>
