<?xml version="1.0" encoding="UTF-8" standalone="no"?>
<!DOCTYPE svg PUBLIC "-//W3C//DTD SVG 1.1//EN"
 "http://www.w3.org/Graphics/SVG/1.1/DTD/svg11.dtd">
<!-- Generated by graphviz version 2.40.1 (20161225.0304)
 -->
<!-- Title: memory Pages: 1 -->
<svg width="578pt" height="1328pt"
 viewBox="0.00 0.00 578.00 1328.00" xmlns="http://www.w3.org/2000/svg" xmlns:xlink="http://www.w3.org/1999/xlink">
<g id="graph0" class="graph" transform="scale(1 1) rotate(0) translate(4 1324)">
<title>memory</title>
<polygon fill="#ffffff" stroke="transparent" points="-4,4 -4,-1324 574,-1324 574,4 -4,4"/>
<g id="clust1" class="cluster">
<title>cluster_0</title>
<polygon fill="none" stroke="transparent" points="8,-8 8,-1312 460,-1312 460,-8 8,-8"/>
</g>
<!-- pile -->
<g id="node1" class="node">
<title>pile</title>
<polygon fill="#c0c0c0" stroke="transparent" points="27,-1209 27,-1230 165,-1230 165,-1209 27,-1209"/>
<polygon fill="none" stroke="#000000" points="27,-1209 27,-1230 165,-1230 165,-1209 27,-1209"/>
<text text-anchor="start" x="85" y="-1215.8" font-family="Times,serif" font-size="14.00" fill="#000000">Pile</text>
<polygon fill="#d3d3d3" stroke="transparent" points="27,-1186 27,-1207 90,-1207 90,-1186 27,-1186"/>
<polygon fill="none" stroke="#000000" points="27,-1186 27,-1207 90,-1207 90,-1186 27,-1186"/>
<text text-anchor="start" x="44.5" y="-1192.8" font-family="Times,serif" font-size="14.00" fill="#000000">Nom</text>
<polygon fill="#d3d3d3" stroke="transparent" points="92,-1186 92,-1207 165,-1207 165,-1186 92,-1186"/>
<polygon fill="none" stroke="#000000" points="92,-1186 92,-1207 165,-1207 165,-1186 92,-1186"/>
<text text-anchor="start" x="110" y="-1192.8" font-family="Times,serif" font-size="14.00" fill="#000000">Valeur</text>
<polygon fill="none" stroke="#000000" points="27,-1063 27,-1184 165,-1184 165,-1063 27,-1063"/>
<text text-anchor="start" x="68.5" y="-1164.8" font-family="Times,serif" font-size="14.00" fill="#000000">Catalogue</text>
<text text-anchor="start" x="55" y="-1143.8" font-family="Times,serif" font-size="14.00" fill="#000000">(Liste chaînée)</text>
<polygon fill="#d7d7d7" stroke="transparent" points="33,-1115 33,-1136 125,-1136 125,-1115 33,-1115"/>
<text text-anchor="start" x="35.5" y="-1121.8" font-family="Times,serif" font-size="14.00" fill="#000000">premierMaillon</text>
<polygon fill="#faf391" stroke="transparent" points="127,-1115 127,-1136 159,-1136 159,-1115 127,-1115"/>
<polygon fill="none" stroke="#000000" points="127,-1115 127,-1136 159,-1136 159,-1115 127,-1115"/>
<text text-anchor="start" x="130.5" y="-1121.8" font-family="Times,serif" font-size="14.00" fill="#000000">0x...</text>
<polygon fill="#d7d7d7" stroke="transparent" points="33,-1092 33,-1113 125,-1113 125,-1092 33,-1092"/>
<text text-anchor="start" x="38" y="-1098.8" font-family="Times,serif" font-size="14.00" fill="#000000">dernierMaillon</text>
<polygon fill="#f9dab2" stroke="transparent" points="127,-1092 127,-1113 159,-1113 159,-1092 127,-1092"/>
<polygon fill="none" stroke="#000000" points="127,-1092 127,-1113 159,-1113 159,-1092 127,-1092"/>
<text text-anchor="start" x="130.5" y="-1098.8" font-family="Times,serif" font-size="14.00" fill="#000000">0x...</text>
<polygon fill="#d7d7d7" stroke="transparent" points="33,-1069 33,-1090 125,-1090 125,-1069 33,-1069"/>
<text text-anchor="start" x="65" y="-1075.8" font-family="Times,serif" font-size="14.00" fill="#000000">taille</text>
<polygon fill="#d3d3d3" stroke="transparent" points="127,-1069 127,-1090 159,-1090 159,-1069 127,-1069"/>
<polygon fill="none" stroke="#000000" points="127,-1069 127,-1090 159,-1090 159,-1069 127,-1069"/>
<text text-anchor="start" x="139.5" y="-1075.8" font-family="Times,serif" font-size="14.00" fill="#000000">3</text>
<polygon fill="none" stroke="#000000" points="30,-1066 30,-1181 162,-1181 162,-1066 30,-1066"/>
<polygon fill="none" stroke="#000000" points="24,-1060.5 24,-1233.5 168,-1233.5 168,-1060.5 24,-1060.5"/>
</g>
<!-- tas -->
<g id="node2" class="node">
<title>tas</title>
<polygon fill="#c0c0c0" stroke="transparent" points="223,-1276 223,-1297 441,-1297 441,-1276 223,-1276"/>
<polygon fill="none" stroke="#000000" points="223,-1276 223,-1297 441,-1297 441,-1276 223,-1276"/>
<text text-anchor="start" x="322" y="-1282.8" font-family="Times,serif" font-size="14.00" fill="#000000">Tas</text>
<polygon fill="#d3d3d3" stroke="transparent" points="223,-1253 223,-1274 326,-1274 326,-1253 223,-1253"/>
<polygon fill="none" stroke="#000000" points="223,-1253 223,-1274 326,-1274 326,-1253 223,-1253"/>
<text text-anchor="start" x="260.5" y="-1259.8" font-family="Times,serif" font-size="14.00" fill="#000000">Nom</text>
<polygon fill="#d3d3d3" stroke="transparent" points="328,-1253 328,-1274 441,-1274 441,-1253 328,-1253"/>
<polygon fill="none" stroke="#000000" points="328,-1253 328,-1274 441,-1274 441,-1253 328,-1253"/>
<text text-anchor="start" x="366" y="-1259.8" font-family="Times,serif" font-size="14.00" fill="#000000">Valeur</text>
<polygon fill="none" stroke="#000000" points="223,-1153 223,-1251 441,-1251 441,-1153 223,-1153"/>
<text text-anchor="start" x="255.5" y="-1231.8" font-family="Times,serif" font-size="14.00" fill="#000000">MaillonListeChaineeTrajets</text>
<text text-anchor="start" x="268.5" y="-1210.8" font-family="Times,serif" font-size="14.00" fill="#000000">(Entrée catalogue TS1)</text>
<polygon fill="#d7d7d7" stroke="transparent" points="229,-1182 229,-1203 360,-1203 360,-1182 229,-1182"/>
<text text-anchor="start" x="280.5" y="-1188.8" font-family="Times,serif" font-size="14.00" fill="#000000">trajet</text>
<polygon fill="#d3b2f9" stroke="transparent" points="362,-1182 362,-1203 435,-1203 435,-1182 362,-1182"/>
<polygon fill="none" stroke="#000000" points="362,-1182 362,-1203 435,-1203 435,-1182 362,-1182"/>
<text text-anchor="start" x="386" y="-1188.8" font-family="Times,serif" font-size="14.00" fill="#000000">0x...</text>
<polygon fill="#d7d7d7" stroke="transparent" points="229,-1159 229,-1180 360,-1180 360,-1159 229,-1159"/>
<text text-anchor="start" x="252.5" y="-1165.8" font-family="Times,serif" font-size="14.00" fill="#000000">maillonSuivant</text>
<polygon fill="#70a3d7" stroke="transparent" points="362,-1159 362,-1180 435,-1180 435,-1159 362,-1159"/>
<polygon fill="none" stroke="#000000" points="362,-1159 362,-1180 435,-1180 435,-1159 362,-1159"/>
<text text-anchor="start" x="386" y="-1165.8" font-family="Times,serif" font-size="14.00" fill="#000000">0x...</text>
<polygon fill="none" stroke="#000000" points="226,-1156 226,-1248 438,-1248 438,-1156 226,-1156"/>
<polygon fill="none" stroke="#000000" points="223,-1053 223,-1151 441,-1151 441,-1053 223,-1053"/>
<text text-anchor="start" x="255.5" y="-1131.8" font-family="Times,serif" font-size="14.00" fill="#000000">MaillonListeChaineeTrajets</text>
<text text-anchor="start" x="268" y="-1110.8" font-family="Times,serif" font-size="14.00" fill="#000000">(Entrée catalogue TC2)</text>
<polygon fill="#d7d7d7" stroke="transparent" points="229,-1082 229,-1103 360,-1103 360,-1082 229,-1082"/>
<text text-anchor="start" x="280.5" y="-1088.8" font-family="Times,serif" font-size="14.00" fill="#000000">trajet</text>
<polygon fill="#d3b2f9" stroke="transparent" points="362,-1082 362,-1103 435,-1103 435,-1082 362,-1082"/>
<polygon fill="none" stroke="#000000" points="362,-1082 362,-1103 435,-1103 435,-1082 362,-1082"/>
<text text-anchor="start" x="386" y="-1088.8" font-family="Times,serif" font-size="14.00" fill="#000000">0x...</text>
<polygon fill="#d7d7d7" stroke="transparent" points="229,-1059 229,-1080 360,-1080 360,-1059 229,-1059"/>
<text text-anchor="start" x="252.5" y="-1065.8" font-family="Times,serif" font-size="14.00" fill="#000000">maillonSuivant</text>
<polygon fill="#70a3d7" stroke="transparent" points="362,-1059 362,-1080 435,-1080 435,-1059 362,-1059"/>
<polygon fill="none" stroke="#000000" points="362,-1059 362,-1080 435,-1080 435,-1059 362,-1059"/>
<text text-anchor="start" x="386" y="-1065.8" font-family="Times,serif" font-size="14.00" fill="#000000">0x...</text>
<polygon fill="none" stroke="#000000" points="226,-1056 226,-1148 438,-1148 438,-1056 226,-1056"/>
<polygon fill="none" stroke="#000000" points="223,-953 223,-1051 441,-1051 441,-953 223,-953"/>
<text text-anchor="start" x="255.5" y="-1031.8" font-family="Times,serif" font-size="14.00" fill="#000000">MaillonListeChaineeTrajets</text>
<text text-anchor="start" x="268.5" y="-1010.8" font-family="Times,serif" font-size="14.00" fill="#000000">(Entrée catalogue TS3)</text>
<polygon fill="#d7d7d7" stroke="transparent" points="229,-982 229,-1003 354,-1003 354,-982 229,-982"/>
<text text-anchor="start" x="277.5" y="-988.8" font-family="Times,serif" font-size="14.00" fill="#000000">trajet</text>
<polygon fill="#d3b2f9" stroke="transparent" points="356,-982 356,-1003 435,-1003 435,-982 356,-982"/>
<polygon fill="none" stroke="#000000" points="356,-982 356,-1003 435,-1003 435,-982 356,-982"/>
<text text-anchor="start" x="383" y="-988.8" font-family="Times,serif" font-size="14.00" fill="#000000">0x...</text>
<polygon fill="#d7d7d7" stroke="transparent" points="229,-959 229,-980 354,-980 354,-959 229,-959"/>
<text text-anchor="start" x="249.5" y="-965.8" font-family="Times,serif" font-size="14.00" fill="#000000">maillonSuivant</text>
<polygon fill="#70a3d7" stroke="transparent" points="356,-959 356,-980 435,-980 435,-959 356,-959"/>
<polygon fill="none" stroke="#000000" points="356,-959 356,-980 435,-980 435,-959 356,-959"/>
<text text-anchor="start" x="377" y="-965.8" font-family="Times,serif" font-size="14.00" fill="#000000">nullptr</text>
<polygon fill="none" stroke="#000000" points="226,-956 226,-1048 438,-1048 438,-956 226,-956"/>
<polygon fill="none" stroke="#000000" points="223,-807 223,-951 441,-951 441,-807 223,-807"/>
<text text-anchor="start" x="296" y="-931.8" font-family="Times,serif" font-size="14.00" fill="#000000">TrajetSimple</text>
<text text-anchor="start" x="316" y="-910.8" font-family="Times,serif" font-size="14.00" fill="#000000">(TS1)</text>
<polygon fill="#d7d7d7" stroke="transparent" points="229,-882 229,-903 356,-903 356,-882 229,-882"/>
<text text-anchor="start" x="262" y="-888.8" font-family="Times,serif" font-size="14.00" fill="#000000">villeDepart</text>
<polygon fill="#b2f9ca" stroke="transparent" points="358,-882 358,-903 435,-903 435,-882 358,-882"/>
<polygon fill="none" stroke="#000000" points="358,-882 358,-903 435,-903 435,-882 358,-882"/>
<text text-anchor="start" x="384" y="-888.8" font-family="Times,serif" font-size="14.00" fill="#000000">0x...</text>
<polygon fill="#d7d7d7" stroke="transparent" points="229,-859 229,-880 356,-880 356,-859 229,-859"/>
<text text-anchor="start" x="259.5" y="-865.8" font-family="Times,serif" font-size="14.00" fill="#000000">villeArrivee</text>
<polygon fill="#b2f9ca" stroke="transparent" points="358,-859 358,-880 435,-880 435,-859 358,-859"/>
<polygon fill="none" stroke="#000000" points="358,-859 358,-880 435,-880 435,-859 358,-859"/>
<text text-anchor="start" x="384" y="-865.8" font-family="Times,serif" font-size="14.00" fill="#000000">0x...</text>
<polygon fill="#d7d7d7" stroke="transparent" points="229,-836 229,-857 356,-857 356,-836 229,-836"/>
<text text-anchor="start" x="254.5" y="-842.8" font-family="Times,serif" font-size="14.00" fill="#000000">typeTransport</text>
<polygon fill="#b2f9ca" stroke="transparent" points="358,-836 358,-857 435,-857 435,-836 358,-836"/>
<polygon fill="none" stroke="#000000" points="358,-836 358,-857 435,-857 435,-836 358,-836"/>
<text text-anchor="start" x="384" y="-842.8" font-family="Times,serif" font-size="14.00" fill="#000000">0x...</text>
<polygon fill="#d7d7d7" stroke="transparent" points="229,-813 229,-834 356,-834 356,-813 229,-813"/>
<text text-anchor="start" x="275.5" y="-819.8" font-family="Times,serif" font-size="14.00" fill="#000000">indice</text>
<polygon fill="#d7d7d7" stroke="transparent" points="358,-813 358,-834 435,-834 435,-813 358,-813"/>
<polygon fill="none" stroke="#000000" points="358,-813 358,-834 435,-834 435,-813 358,-813"/>
<text text-anchor="start" x="393" y="-819.8" font-family="Times,serif" font-size="14.00" fill="#000000">0</text>
<polygon fill="none" stroke="#000000" points="226,-810 226,-948 438,-948 438,-810 226,-810"/>
<polygon fill="none" stroke="#000000" points="223,-661 223,-805 441,-805 441,-661 223,-661"/>
<text text-anchor="start" x="296" y="-785.8" font-family="Times,serif" font-size="14.00" fill="#000000">TrajetSimple</text>
<text text-anchor="start" x="310.5" y="-764.8" font-family="Times,serif" font-size="14.00" fill="#000000">(TS2&#45;1)</text>
<polygon fill="#d7d7d7" stroke="transparent" points="229,-736 229,-757 356,-757 356,-736 229,-736"/>
<text text-anchor="start" x="262" y="-742.8" font-family="Times,serif" font-size="14.00" fill="#000000">villeDepart</text>
<polygon fill="#b2f9ca" stroke="transparent" points="358,-736 358,-757 435,-757 435,-736 358,-736"/>
<polygon fill="none" stroke="#000000" points="358,-736 358,-757 435,-757 435,-736 358,-736"/>
<text text-anchor="start" x="384" y="-742.8" font-family="Times,serif" font-size="14.00" fill="#000000">0x...</text>
<polygon fill="#d7d7d7" stroke="transparent" points="229,-713 229,-734 356,-734 356,-713 229,-713"/>
<text text-anchor="start" x="259.5" y="-719.8" font-family="Times,serif" font-size="14.00" fill="#000000">villeArrivee</text>
<polygon fill="#b2f9ca" stroke="transparent" points="358,-713 358,-734 435,-734 435,-713 358,-713"/>
<polygon fill="none" stroke="#000000" points="358,-713 358,-734 435,-734 435,-713 358,-713"/>
<text text-anchor="start" x="384" y="-719.8" font-family="Times,serif" font-size="14.00" fill="#000000">0x...</text>
<polygon fill="#d7d7d7" stroke="transparent" points="229,-690 229,-711 356,-711 356,-690 229,-690"/>
<text text-anchor="start" x="254.5" y="-696.8" font-family="Times,serif" font-size="14.00" fill="#000000">typeTransport</text>
<polygon fill="#b2f9ca" stroke="transparent" points="358,-690 358,-711 435,-711 435,-690 358,-690"/>
<polygon fill="none" stroke="#000000" points="358,-690 358,-711 435,-711 435,-690 358,-690"/>
<text text-anchor="start" x="384" y="-696.8" font-family="Times,serif" font-size="14.00" fill="#000000">0x...</text>
<polygon fill="#d7d7d7" stroke="transparent" points="229,-667 229,-688 356,-688 356,-667 229,-667"/>
<text text-anchor="start" x="275.5" y="-673.8" font-family="Times,serif" font-size="14.00" fill="#000000">indice</text>
<polygon fill="#d7d7d7" stroke="transparent" points="358,-667 358,-688 435,-688 435,-667 358,-667"/>
<polygon fill="none" stroke="#000000" points="358,-667 358,-688 435,-688 435,-667 358,-667"/>
<text text-anchor="start" x="393" y="-673.8" font-family="Times,serif" font-size="14.00" fill="#000000">0</text>
<polygon fill="none" stroke="#000000" points="226,-664 226,-802 438,-802 438,-664 226,-664"/>
<polygon fill="none" stroke="#000000" points="223,-515 223,-659 441,-659 441,-515 223,-515"/>
<text text-anchor="start" x="296" y="-639.8" font-family="Times,serif" font-size="14.00" fill="#000000">TrajetSimple</text>
<text text-anchor="start" x="310.5" y="-618.8" font-family="Times,serif" font-size="14.00" fill="#000000">(TS2&#45;2)</text>
<polygon fill="#d7d7d7" stroke="transparent" points="229,-590 229,-611 356,-611 356,-590 229,-590"/>
<text text-anchor="start" x="262" y="-596.8" font-family="Times,serif" font-size="14.00" fill="#000000">villeDepart</text>
<polygon fill="#b2f9ca" stroke="transparent" points="358,-590 358,-611 435,-611 435,-590 358,-590"/>
<polygon fill="none" stroke="#000000" points="358,-590 358,-611 435,-611 435,-590 358,-590"/>
<text text-anchor="start" x="384" y="-596.8" font-family="Times,serif" font-size="14.00" fill="#000000">0x...</text>
<polygon fill="#d7d7d7" stroke="transparent" points="229,-567 229,-588 356,-588 356,-567 229,-567"/>
<text text-anchor="start" x="259.5" y="-573.8" font-family="Times,serif" font-size="14.00" fill="#000000">villeArrivee</text>
<polygon fill="#b2f9ca" stroke="transparent" points="358,-567 358,-588 435,-588 435,-567 358,-567"/>
<polygon fill="none" stroke="#000000" points="358,-567 358,-588 435,-588 435,-567 358,-567"/>
<text text-anchor="start" x="384" y="-573.8" font-family="Times,serif" font-size="14.00" fill="#000000">0x...</text>
<polygon fill="#d7d7d7" stroke="transparent" points="229,-544 229,-565 356,-565 356,-544 229,-544"/>
<text text-anchor="start" x="254.5" y="-550.8" font-family="Times,serif" font-size="14.00" fill="#000000">typeTransport</text>
<polygon fill="#b2f9ca" stroke="transparent" points="358,-544 358,-565 435,-565 435,-544 358,-544"/>
<polygon fill="none" stroke="#000000" points="358,-544 358,-565 435,-565 435,-544 358,-544"/>
<text text-anchor="start" x="384" y="-550.8" font-family="Times,serif" font-size="14.00" fill="#000000">0x...</text>
<polygon fill="#d7d7d7" stroke="transparent" points="229,-521 229,-542 356,-542 356,-521 229,-521"/>
<text text-anchor="start" x="275.5" y="-527.8" font-family="Times,serif" font-size="14.00" fill="#000000">indice</text>
<polygon fill="#d7d7d7" stroke="transparent" points="358,-521 358,-542 435,-542 435,-521 358,-521"/>
<polygon fill="none" stroke="#000000" points="358,-521 358,-542 435,-542 435,-521 358,-521"/>
<text text-anchor="start" x="393" y="-527.8" font-family="Times,serif" font-size="14.00" fill="#000000">0</text>
<polygon fill="none" stroke="#000000" points="226,-518 226,-656 438,-656 438,-518 226,-518"/>
<polygon fill="none" stroke="#000000" points="223,-369 223,-513 441,-513 441,-369 223,-369"/>
<text text-anchor="start" x="296" y="-493.8" font-family="Times,serif" font-size="14.00" fill="#000000">TrajetSimple</text>
<text text-anchor="start" x="316" y="-472.8" font-family="Times,serif" font-size="14.00" fill="#000000">(TS3)</text>
<polygon fill="#d7d7d7" stroke="transparent" points="229,-444 229,-465 356,-465 356,-444 229,-444"/>
<text text-anchor="start" x="262" y="-450.8" font-family="Times,serif" font-size="14.00" fill="#000000">villeDepart</text>
<polygon fill="#b2f9ca" stroke="transparent" points="358,-444 358,-465 435,-465 435,-444 358,-444"/>
<polygon fill="none" stroke="#000000" points="358,-444 358,-465 435,-465 435,-444 358,-444"/>
<text text-anchor="start" x="384" y="-450.8" font-family="Times,serif" font-size="14.00" fill="#000000">0x...</text>
<polygon fill="#d7d7d7" stroke="transparent" points="229,-421 229,-442 356,-442 356,-421 229,-421"/>
<text text-anchor="start" x="259.5" y="-427.8" font-family="Times,serif" font-size="14.00" fill="#000000">villeArrivee</text>
<polygon fill="#b2f9ca" stroke="transparent" points="358,-421 358,-442 435,-442 435,-421 358,-421"/>
<polygon fill="none" stroke="#000000" points="358,-421 358,-442 435,-442 435,-421 358,-421"/>
<text text-anchor="start" x="384" y="-427.8" font-family="Times,serif" font-size="14.00" fill="#000000">0x...</text>
<polygon fill="#d7d7d7" stroke="transparent" points="229,-398 229,-419 356,-419 356,-398 229,-398"/>
<text text-anchor="start" x="254.5" y="-404.8" font-family="Times,serif" font-size="14.00" fill="#000000">typeTransport</text>
<polygon fill="#b2f9ca" stroke="transparent" points="358,-398 358,-419 435,-419 435,-398 358,-398"/>
<polygon fill="none" stroke="#000000" points="358,-398 358,-419 435,-419 435,-398 358,-398"/>
<text text-anchor="start" x="384" y="-404.8" font-family="Times,serif" font-size="14.00" fill="#000000">0x...</text>
<polygon fill="#d7d7d7" stroke="transparent" points="229,-375 229,-396 356,-396 356,-375 229,-375"/>
<text text-anchor="start" x="275.5" y="-381.8" font-family="Times,serif" font-size="14.00" fill="#000000">indice</text>
<polygon fill="#d7d7d7" stroke="transparent" points="358,-375 358,-396 435,-396 435,-375 358,-375"/>
<polygon fill="none" stroke="#000000" points="358,-375 358,-396 435,-396 435,-375 358,-375"/>
<text text-anchor="start" x="393" y="-381.8" font-family="Times,serif" font-size="14.00" fill="#000000">0</text>
<polygon fill="none" stroke="#000000" points="226,-372 226,-510 438,-510 438,-372 226,-372"/>
<polygon fill="none" stroke="#000000" points="223,-223 223,-367 441,-367 441,-223 223,-223"/>
<text text-anchor="start" x="289.5" y="-347.8" font-family="Times,serif" font-size="14.00" fill="#000000">TrajetCompose</text>
<text text-anchor="start" x="273" y="-326.8" font-family="Times,serif" font-size="14.00" fill="#000000">(TC2 &#45; Liste chaînée)</text>
<polygon fill="#d7d7d7" stroke="transparent" points="229,-298 229,-319 361,-319 361,-298 229,-298"/>
<text text-anchor="start" x="251.5" y="-304.8" font-family="Times,serif" font-size="14.00" fill="#000000">premierMaillon</text>
<polygon fill="#faf391" stroke="transparent" points="363,-298 363,-319 435,-319 435,-298 363,-298"/>
<polygon fill="none" stroke="#000000" points="363,-298 363,-319 435,-319 435,-298 363,-298"/>
<text text-anchor="start" x="386.5" y="-304.8" font-family="Times,serif" font-size="14.00" fill="#000000">0x...</text>
<polygon fill="#d7d7d7" stroke="transparent" points="229,-275 229,-296 361,-296 361,-275 229,-275"/>
<text text-anchor="start" x="254" y="-281.8" font-family="Times,serif" font-size="14.00" fill="#000000">dernierMaillon</text>
<polygon fill="#f9dab2" stroke="transparent" points="363,-275 363,-296 435,-296 435,-275 363,-275"/>
<polygon fill="none" stroke="#000000" points="363,-275 363,-296 435,-296 435,-275 363,-275"/>
<text text-anchor="start" x="386.5" y="-281.8" font-family="Times,serif" font-size="14.00" fill="#000000">0x...</text>
<polygon fill="#d7d7d7" stroke="transparent" points="229,-252 229,-273 361,-273 361,-252 229,-252"/>
<text text-anchor="start" x="281" y="-258.8" font-family="Times,serif" font-size="14.00" fill="#000000">taille</text>
<polygon fill="#d3d3d3" stroke="transparent" points="363,-252 363,-273 435,-273 435,-252 363,-252"/>
<polygon fill="none" stroke="#000000" points="363,-252 363,-273 435,-273 435,-252 363,-252"/>
<text text-anchor="start" x="395.5" y="-258.8" font-family="Times,serif" font-size="14.00" fill="#000000">2</text>
<polygon fill="#d7d7d7" stroke="transparent" points="229,-229 229,-250 361,-250 361,-229 229,-229"/>
<text text-anchor="start" x="278" y="-235.8" font-family="Times,serif" font-size="14.00" fill="#000000">indice</text>
<polygon fill="#d7d7d7" stroke="transparent" points="363,-229 363,-250 435,-250 435,-229 363,-229"/>
<polygon fill="none" stroke="#000000" points="363,-229 363,-250 435,-250 435,-229 363,-229"/>
<text text-anchor="start" x="395.5" y="-235.8" font-family="Times,serif" font-size="14.00" fill="#000000">1</text>
<polygon fill="none" stroke="#000000" points="226,-226 226,-364 438,-364 438,-226 226,-226"/>
<polygon fill="none" stroke="#000000" points="223,-123 223,-221 441,-221 441,-123 223,-123"/>
<text text-anchor="start" x="255.5" y="-201.8" font-family="Times,serif" font-size="14.00" fill="#000000">MaillonListeChaineeTrajets</text>
<text text-anchor="start" x="233" y="-180.8" font-family="Times,serif" font-size="14.00" fill="#000000">(Entrée TS2&#45;1 TrajetCompose TC2)</text>
<polygon fill="#d7d7d7" stroke="transparent" points="229,-152 229,-173 359,-173 359,-152 229,-152"/>
<text text-anchor="start" x="280" y="-158.8" font-family="Times,serif" font-size="14.00" fill="#000000">trajet</text>
<polygon fill="#d3b2f9" stroke="transparent" points="361,-152 361,-173 435,-173 435,-152 361,-152"/>
<polygon fill="none" stroke="#000000" points="361,-152 361,-173 435,-173 435,-152 361,-152"/>
<text text-anchor="start" x="385.5" y="-158.8" font-family="Times,serif" font-size="14.00" fill="#000000">0x...</text>
<polygon fill="#d7d7d7" stroke="transparent" points="229,-129 229,-150 359,-150 359,-129 229,-129"/>
<text text-anchor="start" x="252" y="-135.8" font-family="Times,serif" font-size="14.00" fill="#000000">maillonSuivant</text>
<polygon fill="#70a3d7" stroke="transparent" points="361,-129 361,-150 435,-150 435,-129 361,-129"/>
<polygon fill="none" stroke="#000000" points="361,-129 361,-150 435,-150 435,-129 361,-129"/>
<text text-anchor="start" x="385.5" y="-135.8" font-family="Times,serif" font-size="14.00" fill="#000000">0x...</text>
<polygon fill="none" stroke="#000000" points="226,-126 226,-218 438,-218 438,-126 226,-126"/>
<polygon fill="none" stroke="#000000" points="223,-23 223,-121 441,-121 441,-23 223,-23"/>
<text text-anchor="start" x="255.5" y="-101.8" font-family="Times,serif" font-size="14.00" fill="#000000">MaillonListeChaineeTrajets</text>
<text text-anchor="start" x="233" y="-80.8" font-family="Times,serif" font-size="14.00" fill="#000000">(Entrée TS2&#45;2 TrajetCompose TC2)</text>
<polygon fill="#d7d7d7" stroke="transparent" points="229,-52 229,-73 353,-73 353,-52 229,-52"/>
<text text-anchor="start" x="277" y="-58.8" font-family="Times,serif" font-size="14.00" fill="#000000">trajet</text>
<polygon fill="#d3b2f9" stroke="transparent" points="355,-52 355,-73 435,-73 435,-52 355,-52"/>
<polygon fill="none" stroke="#000000" points="355,-52 355,-73 435,-73 435,-52 355,-52"/>
<text text-anchor="start" x="382.5" y="-58.8" font-family="Times,serif" font-size="14.00" fill="#000000">0x...</text>
<polygon fill="#d7d7d7" stroke="transparent" points="229,-29 229,-50 353,-50 353,-29 229,-29"/>
<text text-anchor="start" x="249" y="-35.8" font-family="Times,serif" font-size="14.00" fill="#000000">maillonSuivant</text>
<polygon fill="#70a3d7" stroke="transparent" points="355,-29 355,-50 435,-50 435,-29 355,-29"/>
<polygon fill="none" stroke="#000000" points="355,-29 355,-50 435,-50 435,-29 355,-29"/>
<text text-anchor="start" x="376.5" y="-35.8" font-family="Times,serif" font-size="14.00" fill="#000000">nullptr</text>
<polygon fill="none" stroke="#000000" points="226,-26 226,-118 438,-118 438,-26 226,-26"/>
<polygon fill="none" stroke="#000000" points="220,-20 220,-1300 444,-1300 444,-20 220,-20"/>
</g>
<!-- pile&#45;&gt;tas -->
<g id="edge1" class="edge">
<title>pile:e&#45;&gt;tas:w</title>
<path fill="none" stroke="#c2be6f" stroke-width="2" d="M159,-1125C213.5648,-1125 176.2532,-1222.1525 218.9745,-1234.6761"/>
<polygon fill="#faf391" stroke="#c2be6f" stroke-width="2" points="218.6278,-1238.1606 229,-1236 219.5443,-1231.2209 218.6278,-1238.1606"/>
</g>
<!-- pile&#45;&gt;tas -->
<g id="edge2" class="edge">
<title>pile:e&#45;&gt;tas:w</title>
<path fill="none" stroke="#b89f80" stroke-width="2" d="M159,-1102C197.9175,-1102 188.5589,-1047.3266 218.8018,-1037.5025"/>
<polygon fill="#f9dab2" stroke="#b89f80" stroke-width="2" points="219.617,-1040.9203 229,-1036 218.5966,-1033.995 219.617,-1040.9203"/>
</g>
<!-- tas&#45;&gt;tas -->
<g id="edge3" class="edge">
<title>tas:e&#45;&gt;tas:e</title>
<path fill="none" stroke="#c2be6f" stroke-width="2" d="M435,-308C491.3333,-317 570,-317 570,-256.5 570,-199.5449 500.282,-196.2077 445.1121,-203.521"/>
<polygon fill="#faf391" stroke="#c2be6f" stroke-width="2" points="444.3882,-200.0896 435,-205 445.4013,-207.0159 444.3882,-200.0896"/>
</g>
<!-- tas&#45;&gt;tas -->
<g id="edge4" class="edge">
<title>tas:e&#45;&gt;tas:e</title>
<path fill="none" stroke="#b89f80" stroke-width="2" d="M435,-285C491.3333,-294 570,-294 570,-195 570,-101.8008 500.282,-96.3399 445.1121,-103.5288"/>
<polygon fill="#f9dab2" stroke="#b89f80" stroke-width="2" points="444.3919,-100.0966 435,-105 445.3998,-107.0237 444.3919,-100.0966"/>
</g>
<!-- tas&#45;&gt;tas -->
<g id="edge5" class="edge">
<title>tas:e&#45;&gt;tas:e</title>
<path fill="none" stroke="#5d87b3" stroke-width="2" d="M435,-1170C491.3333,-1179 570,-1179 570,-1153 570,-1128.5234 500.282,-1127.0893 445.1121,-1134.5141"/>
<polygon fill="#70a3d7" stroke="#5d87b3" stroke-width="2" points="444.3849,-1131.0833 435,-1136 445.4026,-1138.0089 444.3849,-1131.0833"/>
</g>
<!-- tas&#45;&gt;tas -->
<g id="edge6" class="edge">
<title>tas:e&#45;&gt;tas:e</title>
<path fill="none" stroke="#5d87b3" stroke-width="2" d="M435,-1070C491.3333,-1079 570,-1079 570,-1053 570,-1028.5234 500.282,-1027.0893 445.1121,-1034.5141"/>
<polygon fill="#70a3d7" stroke="#5d87b3" stroke-width="2" points="444.3849,-1031.0833 435,-1036 445.4026,-1038.0089 444.3849,-1031.0833"/>
</g>
<!-- tas&#45;&gt;tas -->
<g id="edge7" class="edge">
<title>tas:e&#45;&gt;tas:e</title>
<path fill="none" stroke="#5d87b3" stroke-width="2" d="M435,-139C491.3333,-148 570,-148 570,-122 570,-97.5234 500.282,-96.0893 445.1121,-103.5141"/>
<polygon fill="#70a3d7" stroke="#5d87b3" stroke-width="2" points="444.3849,-100.0833 435,-105 445.4026,-107.0089 444.3849,-100.0833"/>
</g>
<!-- tas&#45;&gt;tas -->
<g id="edge8" class="edge">
<title>tas:e&#45;&gt;tas:e</title>
<path fill="none" stroke="#86709e" stroke-width="2" d="M435,-1193C491.3333,-1202 570,-1202 570,-1064.5 570,-935.0566 500.282,-927.4721 445.1121,-934.5365"/>
<polygon fill="#d3b2f9" stroke="#86709e" stroke-width="2" points="444.3955,-931.1037 435,-936 445.3982,-938.0315 444.3955,-931.1037"/>
</g>
<!-- tas&#45;&gt;tas -->
<g id="edge9" class="edge">
<title>tas:e&#45;&gt;tas:e</title>
<path fill="none" stroke="#86709e" stroke-width="2" d="M435,-1093C491.3333,-1102 570,-1102 570,-722 570,-364.2656 500.282,-343.3046 445.1121,-349.5853"/>
<polygon fill="#d3b2f9" stroke="#86709e" stroke-width="2" points="444.4186,-346.1481 435,-351 445.3885,-353.0806 444.4186,-346.1481"/>
</g>
<!-- tas&#45;&gt;tas -->
<g id="edge10" class="edge">
<title>tas:e&#45;&gt;tas:e</title>
<path fill="none" stroke="#86709e" stroke-width="2" d="M435,-993C491.3333,-1002 570,-1002 570,-745 570,-503.0586 500.282,-488.8823 445.1121,-495.5606"/>
<polygon fill="#d3b2f9" stroke="#86709e" stroke-width="2" points="444.4069,-492.1256 435,-497 445.3935,-499.0557 444.4069,-492.1256"/>
</g>
<!-- tas&#45;&gt;tas -->
<g id="edge11" class="edge">
<title>tas:e&#45;&gt;tas:e</title>
<path fill="none" stroke="#86709e" stroke-width="2" d="M435,-162C491.3333,-153 570,-153 570,-476 570,-780.0742 500.282,-797.8911 445.1121,-791.4262"/>
<polygon fill="#d3b2f9" stroke="#86709e" stroke-width="2" points="445.3908,-787.9309 435,-790 444.4132,-794.8623 445.3908,-787.9309"/>
</g>
<!-- tas&#45;&gt;tas -->
<g id="edge12" class="edge">
<title>tas:e&#45;&gt;tas:e</title>
<path fill="none" stroke="#86709e" stroke-width="2" d="M435,-62C491.3333,-53 570,-53 570,-352.5 570,-634.4512 500.282,-650.9717 445.1121,-644.4309"/>
<polygon fill="#d3b2f9" stroke="#86709e" stroke-width="2" points="445.3918,-640.9357 435,-643 444.411,-647.8666 445.3918,-640.9357"/>
</g>
</g>
</svg>
