<?xml version="1.0" encoding="UTF-8" standalone="no"?>
<!DOCTYPE svg PUBLIC "-//W3C//DTD SVG 1.1//EN"
 "http://www.w3.org/Graphics/SVG/1.1/DTD/svg11.dtd">
<!-- Generated by graphviz version 2.40.1 (20161225.0304)
 -->
<!-- Title: memory Pages: 1 -->
<svg width="578pt" height="1212pt"
 viewBox="0.00 0.00 578.00 1212.00" xmlns="http://www.w3.org/2000/svg" xmlns:xlink="http://www.w3.org/1999/xlink">
<g id="graph0" class="graph" transform="scale(1 1) rotate(0) translate(4 1208)">
<title>memory</title>
<polygon fill="#ffffff" stroke="transparent" points="-4,4 -4,-1208 574,-1208 574,4 -4,4"/>
<g id="clust1" class="cluster">
<title>cluster_0</title>
<polygon fill="none" stroke="transparent" points="8,-8 8,-1196 460,-1196 460,-8 8,-8"/>
</g>
<!-- pile -->
<g id="node1" class="node">
<title>pile</title>
<polygon fill="#c0c0c0" stroke="transparent" points="27,-1093 27,-1114 165,-1114 165,-1093 27,-1093"/>
<polygon fill="none" stroke="#000000" points="27,-1093 27,-1114 165,-1114 165,-1093 27,-1093"/>
<text text-anchor="start" x="85" y="-1099.8" font-family="Times,serif" font-size="14.00" fill="#000000">Pile</text>
<polygon fill="#d3d3d3" stroke="transparent" points="27,-1070 27,-1091 90,-1091 90,-1070 27,-1070"/>
<polygon fill="none" stroke="#000000" points="27,-1070 27,-1091 90,-1091 90,-1070 27,-1070"/>
<text text-anchor="start" x="44.5" y="-1076.8" font-family="Times,serif" font-size="14.00" fill="#000000">Nom</text>
<polygon fill="#d3d3d3" stroke="transparent" points="92,-1070 92,-1091 165,-1091 165,-1070 92,-1070"/>
<polygon fill="none" stroke="#000000" points="92,-1070 92,-1091 165,-1091 165,-1070 92,-1070"/>
<text text-anchor="start" x="110" y="-1076.8" font-family="Times,serif" font-size="14.00" fill="#000000">Valeur</text>
<polygon fill="none" stroke="#000000" points="27,-947 27,-1068 165,-1068 165,-947 27,-947"/>
<text text-anchor="start" x="68.5" y="-1048.8" font-family="Times,serif" font-size="14.00" fill="#000000">Catalogue</text>
<text text-anchor="start" x="55" y="-1027.8" font-family="Times,serif" font-size="14.00" fill="#000000">(Liste chaînée)</text>
<polygon fill="#d7d7d7" stroke="transparent" points="33,-999 33,-1020 125,-1020 125,-999 33,-999"/>
<text text-anchor="start" x="35.5" y="-1005.8" font-family="Times,serif" font-size="14.00" fill="#000000">premierMaillon</text>
<polygon fill="#faf391" stroke="transparent" points="127,-999 127,-1020 159,-1020 159,-999 127,-999"/>
<polygon fill="none" stroke="#000000" points="127,-999 127,-1020 159,-1020 159,-999 127,-999"/>
<text text-anchor="start" x="130.5" y="-1005.8" font-family="Times,serif" font-size="14.00" fill="#000000">0x...</text>
<polygon fill="#d7d7d7" stroke="transparent" points="33,-976 33,-997 125,-997 125,-976 33,-976"/>
<text text-anchor="start" x="38" y="-982.8" font-family="Times,serif" font-size="14.00" fill="#000000">dernierMaillon</text>
<polygon fill="#f9dab2" stroke="transparent" points="127,-976 127,-997 159,-997 159,-976 127,-976"/>
<polygon fill="none" stroke="#000000" points="127,-976 127,-997 159,-997 159,-976 127,-976"/>
<text text-anchor="start" x="130.5" y="-982.8" font-family="Times,serif" font-size="14.00" fill="#000000">0x...</text>
<polygon fill="#d7d7d7" stroke="transparent" points="33,-953 33,-974 125,-974 125,-953 33,-953"/>
<text text-anchor="start" x="65" y="-959.8" font-family="Times,serif" font-size="14.00" fill="#000000">taille</text>
<polygon fill="#d3d3d3" stroke="transparent" points="127,-953 127,-974 159,-974 159,-953 127,-953"/>
<polygon fill="none" stroke="#000000" points="127,-953 127,-974 159,-974 159,-953 127,-953"/>
<text text-anchor="start" x="139.5" y="-959.8" font-family="Times,serif" font-size="14.00" fill="#000000">3</text>
<polygon fill="none" stroke="#000000" points="30,-950 30,-1065 162,-1065 162,-950 30,-950"/>
<polygon fill="none" stroke="#000000" points="24,-944.5 24,-1117.5 168,-1117.5 168,-944.5 24,-944.5"/>
</g>
<!-- tas -->
<g id="node2" class="node">
<title>tas</title>
<polygon fill="#c0c0c0" stroke="transparent" points="223,-1160 223,-1181 441,-1181 441,-1160 223,-1160"/>
<polygon fill="none" stroke="#000000" points="223,-1160 223,-1181 441,-1181 441,-1160 223,-1160"/>
<text text-anchor="start" x="322" y="-1166.8" font-family="Times,serif" font-size="14.00" fill="#000000">Tas</text>
<polygon fill="#d3d3d3" stroke="transparent" points="223,-1137 223,-1158 326,-1158 326,-1137 223,-1137"/>
<polygon fill="none" stroke="#000000" points="223,-1137 223,-1158 326,-1158 326,-1137 223,-1137"/>
<text text-anchor="start" x="260.5" y="-1143.8" font-family="Times,serif" font-size="14.00" fill="#000000">Nom</text>
<polygon fill="#d3d3d3" stroke="transparent" points="328,-1137 328,-1158 441,-1158 441,-1137 328,-1137"/>
<polygon fill="none" stroke="#000000" points="328,-1137 328,-1158 441,-1158 441,-1137 328,-1137"/>
<text text-anchor="start" x="366" y="-1143.8" font-family="Times,serif" font-size="14.00" fill="#000000">Valeur</text>
<polygon fill="none" stroke="#000000" points="223,-1037 223,-1135 441,-1135 441,-1037 223,-1037"/>
<text text-anchor="start" x="255.5" y="-1115.8" font-family="Times,serif" font-size="14.00" fill="#000000">MaillonListeChaineeTrajets</text>
<text text-anchor="start" x="268.5" y="-1094.8" font-family="Times,serif" font-size="14.00" fill="#000000">(Entrée catalogue TS1)</text>
<polygon fill="#d7d7d7" stroke="transparent" points="229,-1066 229,-1087 360,-1087 360,-1066 229,-1066"/>
<text text-anchor="start" x="280.5" y="-1072.8" font-family="Times,serif" font-size="14.00" fill="#000000">trajet</text>
<polygon fill="#d3b2f9" stroke="transparent" points="362,-1066 362,-1087 435,-1087 435,-1066 362,-1066"/>
<polygon fill="none" stroke="#000000" points="362,-1066 362,-1087 435,-1087 435,-1066 362,-1066"/>
<text text-anchor="start" x="386" y="-1072.8" font-family="Times,serif" font-size="14.00" fill="#000000">0x...</text>
<polygon fill="#d7d7d7" stroke="transparent" points="229,-1043 229,-1064 360,-1064 360,-1043 229,-1043"/>
<text text-anchor="start" x="252.5" y="-1049.8" font-family="Times,serif" font-size="14.00" fill="#000000">maillonSuivant</text>
<polygon fill="#70a3d7" stroke="transparent" points="362,-1043 362,-1064 435,-1064 435,-1043 362,-1043"/>
<polygon fill="none" stroke="#000000" points="362,-1043 362,-1064 435,-1064 435,-1043 362,-1043"/>
<text text-anchor="start" x="386" y="-1049.8" font-family="Times,serif" font-size="14.00" fill="#000000">0x...</text>
<polygon fill="none" stroke="#000000" points="226,-1040 226,-1132 438,-1132 438,-1040 226,-1040"/>
<polygon fill="none" stroke="#000000" points="223,-937 223,-1035 441,-1035 441,-937 223,-937"/>
<text text-anchor="start" x="255.5" y="-1015.8" font-family="Times,serif" font-size="14.00" fill="#000000">MaillonListeChaineeTrajets</text>
<text text-anchor="start" x="268" y="-994.8" font-family="Times,serif" font-size="14.00" fill="#000000">(Entrée catalogue TC2)</text>
<polygon fill="#d7d7d7" stroke="transparent" points="229,-966 229,-987 360,-987 360,-966 229,-966"/>
<text text-anchor="start" x="280.5" y="-972.8" font-family="Times,serif" font-size="14.00" fill="#000000">trajet</text>
<polygon fill="#d3b2f9" stroke="transparent" points="362,-966 362,-987 435,-987 435,-966 362,-966"/>
<polygon fill="none" stroke="#000000" points="362,-966 362,-987 435,-987 435,-966 362,-966"/>
<text text-anchor="start" x="386" y="-972.8" font-family="Times,serif" font-size="14.00" fill="#000000">0x...</text>
<polygon fill="#d7d7d7" stroke="transparent" points="229,-943 229,-964 360,-964 360,-943 229,-943"/>
<text text-anchor="start" x="252.5" y="-949.8" font-family="Times,serif" font-size="14.00" fill="#000000">maillonSuivant</text>
<polygon fill="#70a3d7" stroke="transparent" points="362,-943 362,-964 435,-964 435,-943 362,-943"/>
<polygon fill="none" stroke="#000000" points="362,-943 362,-964 435,-964 435,-943 362,-943"/>
<text text-anchor="start" x="386" y="-949.8" font-family="Times,serif" font-size="14.00" fill="#000000">0x...</text>
<polygon fill="none" stroke="#000000" points="226,-940 226,-1032 438,-1032 438,-940 226,-940"/>
<polygon fill="none" stroke="#000000" points="223,-837 223,-935 441,-935 441,-837 223,-837"/>
<text text-anchor="start" x="255.5" y="-915.8" font-family="Times,serif" font-size="14.00" fill="#000000">MaillonListeChaineeTrajets</text>
<text text-anchor="start" x="268.5" y="-894.8" font-family="Times,serif" font-size="14.00" fill="#000000">(Entrée catalogue TS3)</text>
<polygon fill="#d7d7d7" stroke="transparent" points="229,-866 229,-887 354,-887 354,-866 229,-866"/>
<text text-anchor="start" x="277.5" y="-872.8" font-family="Times,serif" font-size="14.00" fill="#000000">trajet</text>
<polygon fill="#d3b2f9" stroke="transparent" points="356,-866 356,-887 435,-887 435,-866 356,-866"/>
<polygon fill="none" stroke="#000000" points="356,-866 356,-887 435,-887 435,-866 356,-866"/>
<text text-anchor="start" x="383" y="-872.8" font-family="Times,serif" font-size="14.00" fill="#000000">0x...</text>
<polygon fill="#d7d7d7" stroke="transparent" points="229,-843 229,-864 354,-864 354,-843 229,-843"/>
<text text-anchor="start" x="249.5" y="-849.8" font-family="Times,serif" font-size="14.00" fill="#000000">maillonSuivant</text>
<polygon fill="#70a3d7" stroke="transparent" points="356,-843 356,-864 435,-864 435,-843 356,-843"/>
<polygon fill="none" stroke="#000000" points="356,-843 356,-864 435,-864 435,-843 356,-843"/>
<text text-anchor="start" x="377" y="-849.8" font-family="Times,serif" font-size="14.00" fill="#000000">nullptr</text>
<polygon fill="none" stroke="#000000" points="226,-840 226,-932 438,-932 438,-840 226,-840"/>
<polygon fill="none" stroke="#000000" points="223,-714 223,-835 441,-835 441,-714 223,-714"/>
<text text-anchor="start" x="296" y="-815.8" font-family="Times,serif" font-size="14.00" fill="#000000">TrajetSimple</text>
<text text-anchor="start" x="316" y="-794.8" font-family="Times,serif" font-size="14.00" fill="#000000">(TS1)</text>
<polygon fill="#d7d7d7" stroke="transparent" points="229,-766 229,-787 356,-787 356,-766 229,-766"/>
<text text-anchor="start" x="262" y="-772.8" font-family="Times,serif" font-size="14.00" fill="#000000">villeDepart</text>
<polygon fill="#b2f9ca" stroke="transparent" points="358,-766 358,-787 435,-787 435,-766 358,-766"/>
<polygon fill="none" stroke="#000000" points="358,-766 358,-787 435,-787 435,-766 358,-766"/>
<text text-anchor="start" x="384" y="-772.8" font-family="Times,serif" font-size="14.00" fill="#000000">0x...</text>
<polygon fill="#d7d7d7" stroke="transparent" points="229,-743 229,-764 356,-764 356,-743 229,-743"/>
<text text-anchor="start" x="259.5" y="-749.8" font-family="Times,serif" font-size="14.00" fill="#000000">villeArrivee</text>
<polygon fill="#b2f9ca" stroke="transparent" points="358,-743 358,-764 435,-764 435,-743 358,-743"/>
<polygon fill="none" stroke="#000000" points="358,-743 358,-764 435,-764 435,-743 358,-743"/>
<text text-anchor="start" x="384" y="-749.8" font-family="Times,serif" font-size="14.00" fill="#000000">0x...</text>
<polygon fill="#d7d7d7" stroke="transparent" points="229,-720 229,-741 356,-741 356,-720 229,-720"/>
<text text-anchor="start" x="254.5" y="-726.8" font-family="Times,serif" font-size="14.00" fill="#000000">typeTransport</text>
<polygon fill="#b2f9ca" stroke="transparent" points="358,-720 358,-741 435,-741 435,-720 358,-720"/>
<polygon fill="none" stroke="#000000" points="358,-720 358,-741 435,-741 435,-720 358,-720"/>
<text text-anchor="start" x="384" y="-726.8" font-family="Times,serif" font-size="14.00" fill="#000000">0x...</text>
<polygon fill="none" stroke="#000000" points="226,-717 226,-832 438,-832 438,-717 226,-717"/>
<polygon fill="none" stroke="#000000" points="223,-591 223,-712 441,-712 441,-591 223,-591"/>
<text text-anchor="start" x="296" y="-692.8" font-family="Times,serif" font-size="14.00" fill="#000000">TrajetSimple</text>
<text text-anchor="start" x="310.5" y="-671.8" font-family="Times,serif" font-size="14.00" fill="#000000">(TS2&#45;1)</text>
<polygon fill="#d7d7d7" stroke="transparent" points="229,-643 229,-664 356,-664 356,-643 229,-643"/>
<text text-anchor="start" x="262" y="-649.8" font-family="Times,serif" font-size="14.00" fill="#000000">villeDepart</text>
<polygon fill="#b2f9ca" stroke="transparent" points="358,-643 358,-664 435,-664 435,-643 358,-643"/>
<polygon fill="none" stroke="#000000" points="358,-643 358,-664 435,-664 435,-643 358,-643"/>
<text text-anchor="start" x="384" y="-649.8" font-family="Times,serif" font-size="14.00" fill="#000000">0x...</text>
<polygon fill="#d7d7d7" stroke="transparent" points="229,-620 229,-641 356,-641 356,-620 229,-620"/>
<text text-anchor="start" x="259.5" y="-626.8" font-family="Times,serif" font-size="14.00" fill="#000000">villeArrivee</text>
<polygon fill="#b2f9ca" stroke="transparent" points="358,-620 358,-641 435,-641 435,-620 358,-620"/>
<polygon fill="none" stroke="#000000" points="358,-620 358,-641 435,-641 435,-620 358,-620"/>
<text text-anchor="start" x="384" y="-626.8" font-family="Times,serif" font-size="14.00" fill="#000000">0x...</text>
<polygon fill="#d7d7d7" stroke="transparent" points="229,-597 229,-618 356,-618 356,-597 229,-597"/>
<text text-anchor="start" x="254.5" y="-603.8" font-family="Times,serif" font-size="14.00" fill="#000000">typeTransport</text>
<polygon fill="#b2f9ca" stroke="transparent" points="358,-597 358,-618 435,-618 435,-597 358,-597"/>
<polygon fill="none" stroke="#000000" points="358,-597 358,-618 435,-618 435,-597 358,-597"/>
<text text-anchor="start" x="384" y="-603.8" font-family="Times,serif" font-size="14.00" fill="#000000">0x...</text>
<polygon fill="none" stroke="#000000" points="226,-594 226,-709 438,-709 438,-594 226,-594"/>
<polygon fill="none" stroke="#000000" points="223,-468 223,-589 441,-589 441,-468 223,-468"/>
<text text-anchor="start" x="296" y="-569.8" font-family="Times,serif" font-size="14.00" fill="#000000">TrajetSimple</text>
<text text-anchor="start" x="310.5" y="-548.8" font-family="Times,serif" font-size="14.00" fill="#000000">(TS2&#45;2)</text>
<polygon fill="#d7d7d7" stroke="transparent" points="229,-520 229,-541 356,-541 356,-520 229,-520"/>
<text text-anchor="start" x="262" y="-526.8" font-family="Times,serif" font-size="14.00" fill="#000000">villeDepart</text>
<polygon fill="#b2f9ca" stroke="transparent" points="358,-520 358,-541 435,-541 435,-520 358,-520"/>
<polygon fill="none" stroke="#000000" points="358,-520 358,-541 435,-541 435,-520 358,-520"/>
<text text-anchor="start" x="384" y="-526.8" font-family="Times,serif" font-size="14.00" fill="#000000">0x...</text>
<polygon fill="#d7d7d7" stroke="transparent" points="229,-497 229,-518 356,-518 356,-497 229,-497"/>
<text text-anchor="start" x="259.5" y="-503.8" font-family="Times,serif" font-size="14.00" fill="#000000">villeArrivee</text>
<polygon fill="#b2f9ca" stroke="transparent" points="358,-497 358,-518 435,-518 435,-497 358,-497"/>
<polygon fill="none" stroke="#000000" points="358,-497 358,-518 435,-518 435,-497 358,-497"/>
<text text-anchor="start" x="384" y="-503.8" font-family="Times,serif" font-size="14.00" fill="#000000">0x...</text>
<polygon fill="#d7d7d7" stroke="transparent" points="229,-474 229,-495 356,-495 356,-474 229,-474"/>
<text text-anchor="start" x="254.5" y="-480.8" font-family="Times,serif" font-size="14.00" fill="#000000">typeTransport</text>
<polygon fill="#b2f9ca" stroke="transparent" points="358,-474 358,-495 435,-495 435,-474 358,-474"/>
<polygon fill="none" stroke="#000000" points="358,-474 358,-495 435,-495 435,-474 358,-474"/>
<text text-anchor="start" x="384" y="-480.8" font-family="Times,serif" font-size="14.00" fill="#000000">0x...</text>
<polygon fill="none" stroke="#000000" points="226,-471 226,-586 438,-586 438,-471 226,-471"/>
<polygon fill="none" stroke="#000000" points="223,-345 223,-466 441,-466 441,-345 223,-345"/>
<text text-anchor="start" x="296" y="-446.8" font-family="Times,serif" font-size="14.00" fill="#000000">TrajetSimple</text>
<text text-anchor="start" x="316" y="-425.8" font-family="Times,serif" font-size="14.00" fill="#000000">(TS3)</text>
<polygon fill="#d7d7d7" stroke="transparent" points="229,-397 229,-418 356,-418 356,-397 229,-397"/>
<text text-anchor="start" x="262" y="-403.8" font-family="Times,serif" font-size="14.00" fill="#000000">villeDepart</text>
<polygon fill="#b2f9ca" stroke="transparent" points="358,-397 358,-418 435,-418 435,-397 358,-397"/>
<polygon fill="none" stroke="#000000" points="358,-397 358,-418 435,-418 435,-397 358,-397"/>
<text text-anchor="start" x="384" y="-403.8" font-family="Times,serif" font-size="14.00" fill="#000000">0x...</text>
<polygon fill="#d7d7d7" stroke="transparent" points="229,-374 229,-395 356,-395 356,-374 229,-374"/>
<text text-anchor="start" x="259.5" y="-380.8" font-family="Times,serif" font-size="14.00" fill="#000000">villeArrivee</text>
<polygon fill="#b2f9ca" stroke="transparent" points="358,-374 358,-395 435,-395 435,-374 358,-374"/>
<polygon fill="none" stroke="#000000" points="358,-374 358,-395 435,-395 435,-374 358,-374"/>
<text text-anchor="start" x="384" y="-380.8" font-family="Times,serif" font-size="14.00" fill="#000000">0x...</text>
<polygon fill="#d7d7d7" stroke="transparent" points="229,-351 229,-372 356,-372 356,-351 229,-351"/>
<text text-anchor="start" x="254.5" y="-357.8" font-family="Times,serif" font-size="14.00" fill="#000000">typeTransport</text>
<polygon fill="#b2f9ca" stroke="transparent" points="358,-351 358,-372 435,-372 435,-351 358,-351"/>
<polygon fill="none" stroke="#000000" points="358,-351 358,-372 435,-372 435,-351 358,-351"/>
<text text-anchor="start" x="384" y="-357.8" font-family="Times,serif" font-size="14.00" fill="#000000">0x...</text>
<polygon fill="none" stroke="#000000" points="226,-348 226,-463 438,-463 438,-348 226,-348"/>
<polygon fill="none" stroke="#000000" points="223,-222 223,-343 441,-343 441,-222 223,-222"/>
<text text-anchor="start" x="289.5" y="-323.8" font-family="Times,serif" font-size="14.00" fill="#000000">TrajetCompose</text>
<text text-anchor="start" x="273" y="-302.8" font-family="Times,serif" font-size="14.00" fill="#000000">(TC2 &#45; Liste chaînée)</text>
<polygon fill="#d7d7d7" stroke="transparent" points="229,-274 229,-295 361,-295 361,-274 229,-274"/>
<text text-anchor="start" x="251.5" y="-280.8" font-family="Times,serif" font-size="14.00" fill="#000000">premierMaillon</text>
<polygon fill="#faf391" stroke="transparent" points="363,-274 363,-295 435,-295 435,-274 363,-274"/>
<polygon fill="none" stroke="#000000" points="363,-274 363,-295 435,-295 435,-274 363,-274"/>
<text text-anchor="start" x="386.5" y="-280.8" font-family="Times,serif" font-size="14.00" fill="#000000">0x...</text>
<polygon fill="#d7d7d7" stroke="transparent" points="229,-251 229,-272 361,-272 361,-251 229,-251"/>
<text text-anchor="start" x="254" y="-257.8" font-family="Times,serif" font-size="14.00" fill="#000000">dernierMaillon</text>
<polygon fill="#f9dab2" stroke="transparent" points="363,-251 363,-272 435,-272 435,-251 363,-251"/>
<polygon fill="none" stroke="#000000" points="363,-251 363,-272 435,-272 435,-251 363,-251"/>
<text text-anchor="start" x="386.5" y="-257.8" font-family="Times,serif" font-size="14.00" fill="#000000">0x...</text>
<polygon fill="#d7d7d7" stroke="transparent" points="229,-228 229,-249 361,-249 361,-228 229,-228"/>
<text text-anchor="start" x="281" y="-234.8" font-family="Times,serif" font-size="14.00" fill="#000000">taille</text>
<polygon fill="#d3d3d3" stroke="transparent" points="363,-228 363,-249 435,-249 435,-228 363,-228"/>
<polygon fill="none" stroke="#000000" points="363,-228 363,-249 435,-249 435,-228 363,-228"/>
<text text-anchor="start" x="395.5" y="-234.8" font-family="Times,serif" font-size="14.00" fill="#000000">2</text>
<polygon fill="none" stroke="#000000" points="226,-225 226,-340 438,-340 438,-225 226,-225"/>
<polygon fill="none" stroke="#000000" points="223,-122 223,-220 441,-220 441,-122 223,-122"/>
<text text-anchor="start" x="255.5" y="-200.8" font-family="Times,serif" font-size="14.00" fill="#000000">MaillonListeChaineeTrajets</text>
<text text-anchor="start" x="233" y="-179.8" font-family="Times,serif" font-size="14.00" fill="#000000">(Entrée TS2&#45;1 TrajetCompose TC2)</text>
<polygon fill="#d7d7d7" stroke="transparent" points="229,-151 229,-172 359,-172 359,-151 229,-151"/>
<text text-anchor="start" x="280" y="-157.8" font-family="Times,serif" font-size="14.00" fill="#000000">trajet</text>
<polygon fill="#d3b2f9" stroke="transparent" points="361,-151 361,-172 435,-172 435,-151 361,-151"/>
<polygon fill="none" stroke="#000000" points="361,-151 361,-172 435,-172 435,-151 361,-151"/>
<text text-anchor="start" x="385.5" y="-157.8" font-family="Times,serif" font-size="14.00" fill="#000000">0x...</text>
<polygon fill="#d7d7d7" stroke="transparent" points="229,-128 229,-149 359,-149 359,-128 229,-128"/>
<text text-anchor="start" x="252" y="-134.8" font-family="Times,serif" font-size="14.00" fill="#000000">maillonSuivant</text>
<polygon fill="#70a3d7" stroke="transparent" points="361,-128 361,-149 435,-149 435,-128 361,-128"/>
<polygon fill="none" stroke="#000000" points="361,-128 361,-149 435,-149 435,-128 361,-128"/>
<text text-anchor="start" x="385.5" y="-134.8" font-family="Times,serif" font-size="14.00" fill="#000000">0x...</text>
<polygon fill="none" stroke="#000000" points="226,-125 226,-217 438,-217 438,-125 226,-125"/>
<polygon fill="none" stroke="#000000" points="223,-22 223,-120 441,-120 441,-22 223,-22"/>
<text text-anchor="start" x="255.5" y="-100.8" font-family="Times,serif" font-size="14.00" fill="#000000">MaillonListeChaineeTrajets</text>
<text text-anchor="start" x="233" y="-79.8" font-family="Times,serif" font-size="14.00" fill="#000000">(Entrée TS2&#45;2 TrajetCompose TC2)</text>
<polygon fill="#d7d7d7" stroke="transparent" points="229,-51 229,-72 353,-72 353,-51 229,-51"/>
<text text-anchor="start" x="277" y="-57.8" font-family="Times,serif" font-size="14.00" fill="#000000">trajet</text>
<polygon fill="#d3b2f9" stroke="transparent" points="355,-51 355,-72 435,-72 435,-51 355,-51"/>
<polygon fill="none" stroke="#000000" points="355,-51 355,-72 435,-72 435,-51 355,-51"/>
<text text-anchor="start" x="382.5" y="-57.8" font-family="Times,serif" font-size="14.00" fill="#000000">0x...</text>
<polygon fill="#d7d7d7" stroke="transparent" points="229,-28 229,-49 353,-49 353,-28 229,-28"/>
<text text-anchor="start" x="249" y="-34.8" font-family="Times,serif" font-size="14.00" fill="#000000">maillonSuivant</text>
<polygon fill="#70a3d7" stroke="transparent" points="355,-28 355,-49 435,-49 435,-28 355,-28"/>
<polygon fill="none" stroke="#000000" points="355,-28 355,-49 435,-49 435,-28 355,-28"/>
<text text-anchor="start" x="376.5" y="-34.8" font-family="Times,serif" font-size="14.00" fill="#000000">nullptr</text>
<polygon fill="none" stroke="#000000" points="226,-25 226,-117 438,-117 438,-25 226,-25"/>
<polygon fill="none" stroke="#000000" points="220,-19.5 220,-1184.5 444,-1184.5 444,-19.5 220,-19.5"/>
</g>
<!-- pile&#45;&gt;tas -->
<g id="edge1" class="edge">
<title>pile:e&#45;&gt;tas:w</title>
<path fill="none" stroke="#c2be6f" stroke-width="2" d="M159,-1009C213.5648,-1009 176.2532,-1106.1525 218.9745,-1118.6761"/>
<polygon fill="#faf391" stroke="#c2be6f" stroke-width="2" points="218.6278,-1122.1606 229,-1120 219.5443,-1115.2209 218.6278,-1122.1606"/>
</g>
<!-- pile&#45;&gt;tas -->
<g id="edge2" class="edge">
<title>pile:e&#45;&gt;tas:w</title>
<path fill="none" stroke="#b89f80" stroke-width="2" d="M159,-986C197.9175,-986 188.5589,-931.3266 218.8018,-921.5025"/>
<polygon fill="#f9dab2" stroke="#b89f80" stroke-width="2" points="219.617,-924.9203 229,-920 218.5966,-917.995 219.617,-924.9203"/>
</g>
<!-- tas&#45;&gt;tas -->
<g id="edge3" class="edge">
<title>tas:e&#45;&gt;tas:e</title>
<path fill="none" stroke="#c2be6f" stroke-width="2" d="M435,-284C491.3333,-293 570,-293 570,-244 570,-197.8711 500.282,-195.1682 445.1121,-202.5187"/>
<polygon fill="#faf391" stroke="#c2be6f" stroke-width="2" points="444.3871,-199.0875 435,-204 445.4017,-206.0136 444.3871,-199.0875"/>
</g>
<!-- tas&#45;&gt;tas -->
<g id="edge4" class="edge">
<title>tas:e&#45;&gt;tas:e</title>
<path fill="none" stroke="#b89f80" stroke-width="2" d="M435,-261C491.3333,-270 570,-270 570,-182.5 570,-100.127 500.282,-95.3004 445.1121,-102.5265"/>
<polygon fill="#f9dab2" stroke="#b89f80" stroke-width="2" points="444.3908,-99.0945 435,-104 445.4002,-106.0214 444.3908,-99.0945"/>
</g>
<!-- tas&#45;&gt;tas -->
<g id="edge5" class="edge">
<title>tas:e&#45;&gt;tas:e</title>
<path fill="none" stroke="#5d87b3" stroke-width="2" d="M435,-1054C491.3333,-1063 570,-1063 570,-1037 570,-1012.5234 500.282,-1011.0893 445.1121,-1018.5141"/>
<polygon fill="#70a3d7" stroke="#5d87b3" stroke-width="2" points="444.3849,-1015.0833 435,-1020 445.4026,-1022.0089 444.3849,-1015.0833"/>
</g>
<!-- tas&#45;&gt;tas -->
<g id="edge6" class="edge">
<title>tas:e&#45;&gt;tas:e</title>
<path fill="none" stroke="#5d87b3" stroke-width="2" d="M435,-954C491.3333,-963 570,-963 570,-937 570,-912.5234 500.282,-911.0893 445.1121,-918.5141"/>
<polygon fill="#70a3d7" stroke="#5d87b3" stroke-width="2" points="444.3849,-915.0833 435,-920 445.4026,-922.0089 444.3849,-915.0833"/>
</g>
<!-- tas&#45;&gt;tas -->
<g id="edge7" class="edge">
<title>tas:e&#45;&gt;tas:e</title>
<path fill="none" stroke="#5d87b3" stroke-width="2" d="M435,-138C491.3333,-147 570,-147 570,-121 570,-96.5234 500.282,-95.0893 445.1121,-102.5141"/>
<polygon fill="#70a3d7" stroke="#5d87b3" stroke-width="2" points="444.3849,-99.0833 435,-104 445.4026,-106.0089 444.3849,-99.0833"/>
</g>
<!-- tas&#45;&gt;tas -->
<g id="edge8" class="edge">
<title>tas:e&#45;&gt;tas:e</title>
<path fill="none" stroke="#86709e" stroke-width="2" d="M435,-1077C491.3333,-1086 570,-1086 570,-948.5 570,-819.0566 500.282,-811.4721 445.1121,-818.5365"/>
<polygon fill="#d3b2f9" stroke="#86709e" stroke-width="2" points="444.3955,-815.1037 435,-820 445.3982,-822.0315 444.3955,-815.1037"/>
</g>
<!-- tas&#45;&gt;tas -->
<g id="edge9" class="edge">
<title>tas:e&#45;&gt;tas:e</title>
<path fill="none" stroke="#86709e" stroke-width="2" d="M435,-977C491.3333,-986 570,-986 570,-652 570,-337.5703 500.282,-319.1467 445.1121,-325.576"/>
<polygon fill="#d3b2f9" stroke="#86709e" stroke-width="2" points="444.4142,-322.1397 435,-327 445.3904,-329.0713 444.4142,-322.1397"/>
</g>
<!-- tas&#45;&gt;tas -->
<g id="edge10" class="edge">
<title>tas:e&#45;&gt;tas:e</title>
<path fill="none" stroke="#86709e" stroke-width="2" d="M435,-877C491.3333,-886 570,-886 570,-663.5 570,-454.0371 500.282,-441.7639 445.1121,-448.5536"/>
<polygon fill="#d3b2f9" stroke="#86709e" stroke-width="2" points="444.4036,-445.1192 435,-450 445.3949,-452.0487 444.4036,-445.1192"/>
</g>
<!-- tas&#45;&gt;tas -->
<g id="edge11" class="edge">
<title>tas:e&#45;&gt;tas:e</title>
<path fill="none" stroke="#86709e" stroke-width="2" d="M435,-161C491.3333,-152 570,-152 570,-429 570,-689.7695 500.282,-705.049 445.1121,-698.4354"/>
<polygon fill="#d3b2f9" stroke="#86709e" stroke-width="2" points="445.3927,-694.9402 435,-697 444.4088,-701.8708 445.3927,-694.9402"/>
</g>
<!-- tas&#45;&gt;tas -->
<g id="edge12" class="edge">
<title>tas:e&#45;&gt;tas:e</title>
<path fill="none" stroke="#86709e" stroke-width="2" d="M435,-61C491.3333,-52 570,-52 570,-317 570,-566.4727 500.282,-581.0902 445.1121,-574.4378"/>
<polygon fill="#d3b2f9" stroke="#86709e" stroke-width="2" points="445.3932,-570.9427 435,-573 444.4077,-577.873 445.3932,-570.9427"/>
</g>
</g>
</svg>
